<svg width="2000" height="300" viewBox="0 0 2000 300" fill="none" xmlns="http://www.w3.org/2000/svg">
<g clip-path="url(#clip0)">
<rect width="2000" height="300" fill="#FFFEFE"/>
<path d="M2000 163H0V347H2000V163Z" fill="#CFF5EA"/>
<path d="M1961.58 6.4212C1961.05 5.9858 1960.28 6.05615 1959.84 6.57838C1959.41 7.10061 1959.48 7.87695 1960 8.31235C1960.52 8.74775 1961.3 8.67735 1961.73 8.15512C1962.17 7.6329 1962.1 6.8566 1961.58 6.4212Z" fill="#CFF5EA"/>
<path d="M1961.58 6.4212C1961.05 5.9858 1960.28 6.05615 1959.84 6.57838C1959.41 7.10061 1959.48 7.87695 1960 8.31235C1960.52 8.74775 1961.3 8.67735 1961.73 8.15512C1962.17 7.6329 1962.1 6.8566 1961.58 6.4212Z" fill="#CFF5EA"/>
<path d="M1961.58 6.4212C1961.05 5.9858 1960.28 6.05615 1959.84 6.57838C1959.41 7.10061 1959.48 7.87695 1960 8.31235C1960.52 8.74775 1961.3 8.67735 1961.73 8.15512C1962.17 7.6329 1962.1 6.8566 1961.58 6.4212Z" fill="#CFF5EA"/>
<path d="M1961.58 6.4212C1961.05 5.9858 1960.28 6.05615 1959.84 6.57838C1959.41 7.10061 1959.48 7.87695 1960 8.31235C1960.52 8.74775 1961.3 8.67735 1961.73 8.15512C1962.17 7.6329 1962.1 6.8566 1961.58 6.4212Z" fill="#CFF5EA"/>
<path d="M2002.51 78.6439C2001.98 78.2085 2001.21 78.2788 2000.77 78.801C2000.34 79.3233 2000.41 80.0996 2000.93 80.535C2001.45 80.9704 2002.23 80.9 2002.66 80.3778C2003.1 79.8556 2003.03 79.0793 2002.51 78.6439Z" fill="white"/>
<path d="M1978.33 89.6129C1977.81 89.1774 1977.03 89.2478 1976.59 89.77C1976.16 90.2923 1976.23 91.0686 1976.75 91.504C1977.27 91.9394 1978.05 91.869 1978.48 91.3468C1978.92 90.8245 1978.85 90.0483 1978.33 89.6129Z" fill="white"/>
<path d="M1964.75 121.148C1964.23 120.712 1963.46 120.783 1963.02 121.305C1962.59 121.827 1962.66 122.604 1963.18 123.039C1963.7 123.474 1964.48 123.404 1964.91 122.882C1965.35 122.36 1965.28 121.583 1964.75 121.148Z" fill="white"/>
<path d="M1950.41 0.686948C1949.89 0.251546 1949.11 0.3219 1948.67 0.844127C1948.24 1.36635 1948.31 2.1427 1948.83 2.5781C1949.35 3.0135 1950.13 2.9431 1950.57 2.42087C1951 1.89864 1950.93 1.12235 1950.41 0.686948Z" fill="#CFF5EA"/>
<path d="M1945.48 11.8626C1944.95 11.4272 1944.18 11.4976 1943.74 12.0198C1943.31 12.542 1943.38 13.3184 1943.9 13.7538C1944.42 14.1892 1945.2 14.1188 1945.63 13.5965C1946.07 13.0743 1946 12.298 1945.48 11.8626Z" fill="#CFF5EA"/>
<path d="M1978.99 27.4615C1978.47 27.0261 1977.7 27.0964 1977.26 27.6187C1976.83 28.1409 1976.9 28.9172 1977.42 29.3526C1977.94 29.788 1978.72 29.7176 1979.15 29.1954C1979.59 28.6732 1979.52 27.8969 1978.99 27.4615Z" fill="#CFF5EA"/>
<path d="M1967.44 58.2161C1966.91 57.7807 1966.14 57.8511 1965.7 58.3733C1965.27 58.8955 1965.34 59.6719 1965.86 60.1073C1966.38 60.5427 1967.16 60.4723 1967.59 59.95C1968.03 59.4278 1967.96 58.6515 1967.44 58.2161Z" fill="#CFF5EA"/>
<path d="M1953.89 96.4219C1953.36 95.9865 1952.59 96.0569 1952.15 96.5791C1951.72 97.1013 1951.79 97.8777 1952.31 98.3131C1952.83 98.7485 1953.61 98.6781 1954.04 98.1559C1954.48 97.6336 1954.41 96.8573 1953.89 96.4219Z" fill="#CFF5EA"/>
<path d="M1944.56 96.8697C1944.04 96.4343 1943.26 96.5046 1942.83 97.0269C1942.39 97.5491 1942.46 98.3254 1942.99 98.7608C1943.51 99.1962 1944.29 99.1258 1944.72 98.6036C1945.16 98.0814 1945.09 97.3051 1944.56 96.8697Z" fill="#CFF5EA"/>
<path d="M1990.13 73.8098C1989.61 73.3743 1988.83 73.4447 1988.4 73.9669C1987.96 74.4892 1988.03 75.2655 1988.55 75.7009C1989.08 76.1363 1989.85 76.0659 1990.29 75.5437C1990.72 75.0214 1990.65 74.2452 1990.13 73.8098Z" fill="#CFF5EA"/>
<path d="M1939.52 97.5371C1937.17 95.5738 1933.67 95.891 1931.71 98.2458C1929.74 100.601 1930.06 104.101 1932.41 106.065C1934.77 108.028 1938.27 107.71 1940.23 105.356C1942.2 103.001 1941.88 99.5004 1939.52 97.5371Z" fill="#CFF5EA"/>
<path d="M1926.12 74.1225C1925.6 73.6871 1924.82 73.7574 1924.39 74.2797C1923.95 74.8019 1924.02 75.5782 1924.55 76.0136C1925.07 76.449 1925.84 76.3786 1926.28 75.8564C1926.72 75.3342 1926.65 74.5579 1926.12 74.1225Z" fill="#CFF5EA"/>
<path d="M1947.78 133.397C1947.26 132.962 1946.48 133.032 1946.05 133.554C1945.61 134.077 1945.68 134.853 1946.2 135.288C1946.73 135.724 1947.5 135.653 1947.94 135.131C1948.37 134.609 1948.3 133.833 1947.78 133.397Z" fill="#CFF5EA"/>
<path d="M1974.45 151.73C1973.93 151.294 1973.15 151.365 1972.72 151.887C1972.28 152.409 1972.35 153.185 1972.88 153.621C1973.4 154.056 1974.17 153.986 1974.61 153.464C1975.04 152.941 1974.97 152.165 1974.45 151.73Z" fill="#CFF5EA"/>
<path d="M1945.08 48.3515C1944.56 47.9161 1943.79 47.9865 1943.35 48.5087C1942.92 49.0309 1942.99 49.8072 1943.51 50.2427C1944.03 50.6781 1944.81 50.6076 1945.24 50.0854C1945.68 49.5632 1945.61 48.7869 1945.08 48.3515Z" fill="#CFF5EA"/>
<path d="M1936.57 125.238C1936.05 124.802 1935.28 124.873 1934.84 125.395C1934.41 125.917 1934.48 126.693 1935 127.129C1935.52 127.564 1936.3 127.494 1936.73 126.972C1937.17 126.449 1937.1 125.673 1936.57 125.238Z" fill="#CFF5EA"/>
<path d="M1917.92 93.0356C1917.4 92.6002 1916.62 92.6705 1916.19 93.1928C1915.75 93.715 1915.82 94.4913 1916.34 94.9267C1916.86 95.3621 1917.64 95.2917 1918.08 94.7695C1918.51 94.2473 1918.44 93.471 1917.92 93.0356Z" fill="#CFF5EA"/>
<path d="M1982.45 136.731C1981.93 136.296 1981.16 136.366 1980.72 136.888C1980.28 137.41 1980.35 138.187 1980.88 138.622C1981.4 139.058 1982.18 138.987 1982.61 138.465C1983.05 137.943 1982.98 137.166 1982.45 136.731Z" fill="#CFF5EA"/>
<path d="M1991.91 15.0477C1990.25 15.0298 1988.89 16.3618 1988.87 18.0227C1988.86 19.6836 1990.19 21.0445 1991.85 21.0623C1993.51 21.0801 1994.87 19.7482 1994.89 18.0873C1994.91 16.4264 1993.57 15.0655 1991.91 15.0477Z" fill="#CFF5EA"/>
<path d="M1972.82 74.996C1971.16 74.9782 1969.8 76.3102 1969.78 77.9711C1969.76 79.632 1971.1 80.9928 1972.76 81.0107C1974.42 81.0285 1975.78 79.6965 1975.8 78.0356C1975.81 76.3747 1974.48 75.0139 1972.82 74.996Z" fill="#CFF5EA"/>
<path d="M1973.61 1.61736C1971.95 1.59953 1970.59 2.9315 1970.57 4.5924C1970.55 6.2533 1971.88 7.61418 1973.54 7.63202C1975.21 7.64985 1976.57 6.31788 1976.58 4.65698C1976.6 2.99608 1975.27 1.6352 1973.61 1.61736Z" fill="#CFF5EA"/>
<path d="M1955.79 17.868C1954.13 17.8501 1952.77 19.1821 1952.75 20.843C1952.73 22.5039 1954.06 23.8648 1955.73 23.8826C1957.39 23.9005 1958.75 22.5685 1958.76 20.9076C1958.78 19.2467 1957.45 17.8858 1955.79 17.868Z" fill="#CFF5EA"/>
<path d="M1958.46 30.7294C1956.8 30.7116 1955.44 32.0436 1955.42 33.7045C1955.4 35.3654 1956.73 36.7262 1958.39 36.7441C1960.06 36.7619 1961.42 35.4299 1961.43 33.769C1961.45 32.1081 1960.12 30.7473 1958.46 30.7294Z" fill="#CFF5EA"/>
<path d="M1952.1 63.144C1950.43 63.1261 1949.07 64.4581 1949.06 66.119C1949.04 67.7799 1950.37 69.1408 1952.03 69.1586C1953.69 69.1765 1955.05 67.8445 1955.07 66.1836C1955.09 64.5227 1953.76 63.1618 1952.1 63.144Z" fill="#CFF5EA"/>
<path d="M1954.71 80.8171C1953.05 80.7992 1951.69 82.1312 1951.67 83.7921C1951.66 85.453 1952.99 86.8139 1954.65 86.8317C1956.31 86.8496 1957.67 85.5176 1957.69 83.8567C1957.71 82.1958 1956.37 80.8349 1954.71 80.8171Z" fill="#CFF5EA"/>
<path d="M1935.16 65.8902C1933.5 65.8724 1932.14 67.2043 1932.12 68.8652C1932.1 70.5261 1933.43 71.887 1935.09 71.9048C1936.75 71.9227 1938.12 70.5907 1938.13 68.9298C1938.15 67.2689 1936.82 65.908 1935.16 65.8902Z" fill="#CFF5EA"/>
<path d="M1917.38 44.6982C1915.72 44.6803 1914.36 46.0123 1914.35 47.6732C1914.33 49.3341 1915.66 50.695 1917.32 50.7128C1918.98 50.7307 1920.34 49.3987 1920.36 47.7378C1920.38 46.0769 1919.05 44.716 1917.38 44.6982Z" fill="#CFF5EA"/>
<path d="M1964.12 100.969C1962.46 100.951 1961.1 102.283 1961.08 103.944C1961.06 105.605 1962.4 106.966 1964.06 106.984C1965.72 107.002 1967.08 105.67 1967.1 104.009C1967.11 102.348 1965.78 100.987 1964.12 100.969Z" fill="#CFF5EA"/>
<path d="M1945.6 118.005C1943.94 117.987 1942.58 119.319 1942.56 120.98C1942.54 122.641 1943.87 124.002 1945.53 124.02C1947.2 124.038 1948.56 122.706 1948.57 121.045C1948.59 119.384 1947.26 118.023 1945.6 118.005Z" fill="#CFF5EA"/>
<path d="M1986.29 147.459C1982.98 147.423 1980.26 150.081 1980.23 153.394C1980.19 156.708 1982.85 159.423 1986.16 159.458C1989.48 159.494 1992.19 156.837 1992.23 153.523C1992.26 150.21 1989.61 147.495 1986.29 147.459Z" fill="#CFF5EA"/>
<path d="M1937.33 142.918C1935.67 142.9 1934.31 144.232 1934.29 145.893C1934.27 147.554 1935.61 148.915 1937.27 148.933C1938.93 148.951 1940.29 147.619 1940.31 145.958C1940.32 144.297 1938.99 142.936 1937.33 142.918Z" fill="#CFF5EA"/>
<path d="M1993.7 109.536C1990.39 109.501 1987.67 112.158 1987.64 115.471C1987.6 118.785 1990.26 121.5 1993.57 121.536C1996.89 121.571 1999.6 118.914 1999.64 115.6C1999.67 112.287 1997.01 109.572 1993.7 109.536Z" fill="#CFF5EA"/>
<path d="M1981.01 80.3984C1977.7 80.3629 1974.98 83.0201 1974.95 86.3337C1974.91 89.6472 1977.57 92.3622 1980.88 92.3977C1984.2 92.4333 1986.91 89.776 1986.95 86.4625C1986.98 83.149 1984.33 80.434 1981.01 80.3984Z" fill="#CFF5EA"/>
<path d="M1967.38 139.255C1964.07 139.22 1961.35 141.877 1961.32 145.191C1961.28 148.504 1963.94 151.219 1967.25 151.255C1970.56 151.29 1973.28 148.633 1973.32 145.319C1973.35 142.006 1970.69 139.291 1967.38 139.255Z" fill="#CFF5EA"/>
<path d="M1921.15 159.745C1919.49 159.727 1918.13 161.059 1918.11 162.72C1918.09 164.381 1919.42 165.742 1921.09 165.76C1922.75 165.778 1924.11 164.446 1924.12 162.785C1924.14 161.124 1922.81 159.763 1921.15 159.745Z" fill="#CFF5EA"/>
<path d="M1919.47 129.726C1917.81 129.708 1916.45 131.04 1916.43 132.701C1916.41 134.361 1917.75 135.722 1919.41 135.74C1921.07 135.758 1922.43 134.426 1922.45 132.765C1922.46 131.104 1921.13 129.743 1919.47 129.726Z" fill="#CFF5EA"/>
<path d="M1916.29 146.692C1914.63 146.674 1913.27 148.006 1913.25 149.667C1913.23 151.328 1914.56 152.689 1916.23 152.707C1917.89 152.725 1919.25 151.393 1919.26 149.732C1919.28 148.071 1917.95 146.71 1916.29 146.692Z" fill="#CFF5EA"/>
<path d="M1924.69 109.78C1923.03 109.762 1921.66 111.094 1921.65 112.755C1921.63 114.416 1922.96 115.777 1924.62 115.795C1926.28 115.813 1927.64 114.481 1927.66 112.82C1927.68 111.159 1926.35 109.798 1924.69 109.78Z" fill="#CFF5EA"/>
<path d="M1980.8 115.986C1979.14 115.968 1977.78 117.3 1977.76 118.961C1977.75 120.622 1979.08 121.983 1980.74 122.001C1982.4 122.019 1983.76 120.687 1983.78 119.026C1983.8 117.365 1982.46 116.004 1980.8 115.986Z" fill="#CFF5EA"/>
<path d="M1980.85 94.3825C1979.19 94.3647 1977.83 95.6966 1977.82 97.3575C1977.8 99.0184 1979.13 100.379 1980.79 100.397C1982.45 100.415 1983.81 99.083 1983.83 97.4221C1983.85 95.7612 1982.52 94.4003 1980.85 94.3825Z" fill="#CFF5EA"/>
<path d="M1991.93 199.92C1990.27 199.902 1988.91 201.234 1988.89 202.895C1988.88 204.556 1990.21 205.916 1991.87 205.934C1993.53 205.952 1994.89 204.62 1994.91 202.959C1994.93 201.298 1993.59 199.937 1991.93 199.92Z" fill="#CFF5EA"/>
<path d="M1965.08 29.9984C1961.32 29.958 1958.23 32.9771 1958.19 36.7418C1958.15 40.5066 1961.17 43.5912 1964.94 43.6316C1968.7 43.6721 1971.79 40.6529 1971.83 36.8882C1971.87 33.1235 1968.85 30.0389 1965.08 29.9984Z" fill="#CFF5EA"/>
<path d="M1989.27 55.9236C1985.5 55.8832 1982.42 58.9023 1982.38 62.667C1982.34 66.4317 1985.36 69.5164 1989.12 69.5568C1992.89 69.5972 1995.97 66.5781 1996.01 62.8134C1996.05 59.0487 1993.03 55.964 1989.27 55.9236Z" fill="#CFF5EA"/>
<path d="M1915.59 119.698C1910.62 119.645 1906.54 123.631 1906.49 128.601C1906.44 133.571 1910.42 137.644 1915.39 137.697C1920.36 137.751 1924.44 133.765 1924.49 128.794C1924.54 123.824 1920.56 119.752 1915.59 119.698Z" fill="#CFF5EA"/>
<path d="M1992.77 122.13C1991.11 122.112 1989.75 123.444 1989.73 125.105C1989.71 126.766 1991.04 128.127 1992.7 128.145C1994.36 128.163 1995.73 126.831 1995.74 125.17C1995.76 123.509 1994.43 122.148 1992.77 122.13Z" fill="white"/>
<path d="M1920.06 168.749C1916.19 168.708 1913.03 171.808 1912.99 175.673C1912.94 179.539 1916.04 182.707 1919.91 182.748C1923.78 182.79 1926.94 179.69 1926.99 175.824C1927.03 171.958 1923.93 168.791 1920.06 168.749Z" fill="white"/>
<path d="M1952.56 244.411C1950.89 244.393 1949.53 245.725 1949.52 247.386C1949.5 249.047 1950.83 250.408 1952.49 250.426C1954.15 250.444 1955.51 249.112 1955.53 247.451C1955.55 245.79 1954.22 244.429 1952.56 244.411Z" fill="white"/>
<path d="M1956.22 202.343C1954.55 202.325 1953.19 203.657 1953.18 205.318C1953.16 206.979 1954.49 208.34 1956.15 208.358C1957.81 208.376 1959.17 207.044 1959.19 205.383C1959.21 203.722 1957.88 202.361 1956.22 202.343Z" fill="white"/>
<path d="M1969.97 265.452C1968.31 265.434 1966.95 266.766 1966.94 268.427C1966.92 270.088 1968.25 271.448 1969.91 271.466C1971.57 271.484 1972.93 270.152 1972.95 268.491C1972.97 266.83 1971.64 265.469 1969.97 265.452Z" fill="white"/>
<path d="M1953.82 145.372C1948.95 145.32 1944.96 149.227 1944.9 154.099C1944.85 158.971 1948.76 162.963 1953.63 163.015C1958.5 163.067 1962.49 159.16 1962.55 154.288C1962.6 149.416 1958.69 145.424 1953.82 145.372Z" fill="#CFF5EA"/>
<path d="M1956.5 174.141C1949.05 174.061 1942.94 180.04 1942.86 187.495C1942.78 194.95 1948.76 201.059 1956.21 201.139C1963.67 201.219 1969.78 195.24 1969.86 187.785C1969.94 180.329 1963.96 174.221 1956.5 174.141Z" fill="white"/>
<path d="M1916.24 291.715C1908.78 291.635 1902.68 297.614 1902.6 305.069C1902.52 312.525 1908.49 318.634 1915.95 318.714C1923.41 318.794 1929.51 312.815 1929.59 305.359C1929.67 297.904 1923.7 291.795 1916.24 291.715Z" fill="white"/>
<path d="M1984.65 299.295C1979.78 299.243 1975.79 303.15 1975.73 308.022C1975.68 312.894 1979.59 316.886 1984.46 316.938C1989.33 316.99 1993.32 313.083 1993.38 308.211C1993.43 303.339 1989.52 299.347 1984.65 299.295Z" fill="white"/>
<path d="M1997.35 236.872C1992.48 236.819 1988.49 240.727 1988.43 245.599C1988.38 250.471 1992.29 254.462 1997.16 254.515C2002.03 254.567 2006.03 250.66 2006.08 245.788C2006.13 240.916 2002.22 236.924 1997.35 236.872Z" fill="white"/>
<path d="M1998.23 155.072C1993.36 155.02 1989.37 158.927 1989.31 163.799C1989.26 168.671 1993.17 172.663 1998.04 172.715C2002.91 172.768 2006.9 168.861 2006.96 163.989C2007.01 159.117 2003.1 155.125 1998.23 155.072Z" fill="#CFF5EA"/>
<path d="M1972.21 188.078C1967.34 188.026 1963.35 191.933 1963.29 196.805C1963.24 201.677 1967.15 205.669 1972.02 205.721C1976.89 205.774 1980.88 201.866 1980.94 196.994C1980.99 192.122 1977.08 188.131 1972.21 188.078Z" fill="#CFF5EA"/>
<path d="M1953.4 221.963C1948.53 221.911 1944.53 225.818 1944.48 230.69C1944.43 235.562 1948.34 239.554 1953.21 239.606C1958.08 239.658 1962.07 235.751 1962.13 230.879C1962.18 226.007 1958.27 222.015 1953.4 221.963Z" fill="#CFF5EA"/>
<path d="M2014.64 214.199C2005.23 214.098 1997.51 221.646 1997.41 231.058C1997.31 240.47 2004.86 248.181 2014.27 248.282C2023.68 248.383 2031.39 240.835 2031.5 231.424C2031.6 222.012 2024.05 214.3 2014.64 214.199Z" fill="#CFF5EA"/>
<path d="M1977.13 196.552C1975.47 196.535 1974.11 197.867 1974.09 199.527C1974.07 201.188 1975.41 202.549 1977.07 202.567C1978.73 202.585 1980.09 201.253 1980.11 199.592C1980.12 197.931 1978.79 196.57 1977.13 196.552Z" fill="white"/>
<path d="M1960.71 157.076C1959.05 157.058 1957.69 158.39 1957.67 160.051C1957.65 161.712 1958.99 163.073 1960.65 163.091C1962.31 163.108 1963.67 161.776 1963.69 160.115C1963.7 158.455 1962.37 157.094 1960.71 157.076Z" fill="white"/>
<path d="M1937.06 267.905C1935.4 267.887 1934.04 269.219 1934.02 270.88C1934.01 272.541 1935.34 273.902 1937 273.92C1938.66 273.938 1940.02 272.606 1940.04 270.945C1940.06 269.284 1938.73 267.923 1937.06 267.905Z" fill="white"/>
<path d="M1992.33 125.333C1990.67 125.316 1989.31 126.648 1989.29 128.308C1989.27 129.969 1990.61 131.33 1992.27 131.348C1993.93 131.366 1995.29 130.034 1995.31 128.373C1995.33 126.712 1993.99 125.351 1992.33 125.333Z" fill="white"/>
<path d="M1946.05 103.582C1944.39 103.564 1943.03 104.896 1943.01 106.557C1942.99 108.218 1944.32 109.579 1945.98 109.597C1947.64 109.615 1949 108.283 1949.02 106.622C1949.04 104.961 1947.71 103.6 1946.05 103.582Z" fill="white"/>
<path d="M1947.17 186.205C1945.5 186.187 1944.14 187.519 1944.13 189.18C1944.11 190.841 1945.44 192.202 1947.1 192.22C1948.76 192.237 1950.12 190.906 1950.14 189.245C1950.16 187.584 1948.83 186.223 1947.17 186.205Z" fill="white"/>
<path d="M1933.78 193.883C1932.12 193.865 1930.76 195.197 1930.74 196.858C1930.73 198.519 1932.06 199.88 1933.72 199.898C1935.38 199.915 1936.74 198.583 1936.76 196.922C1936.78 195.262 1935.44 193.901 1933.78 193.883Z" fill="white"/>
<path d="M1918.77 288.742C1918.22 288.736 1917.77 289.179 1917.76 289.731C1917.76 290.284 1918.2 290.736 1918.75 290.742C1919.3 290.748 1919.76 290.305 1919.76 289.753C1919.77 289.2 1919.32 288.748 1918.77 288.742Z" fill="white"/>
<path d="M1947.75 291.053C1947.2 291.047 1946.74 291.49 1946.74 292.043C1946.73 292.595 1947.18 293.047 1947.73 293.053C1948.28 293.059 1948.73 292.616 1948.74 292.064C1948.74 291.512 1948.3 291.059 1947.75 291.053Z" fill="white"/>
<path d="M1914.61 210.693C1914.06 210.687 1913.61 211.13 1913.6 211.682C1913.59 212.234 1914.04 212.687 1914.59 212.693C1915.14 212.699 1915.59 212.256 1915.6 211.704C1915.61 211.151 1915.16 210.699 1914.61 210.693Z" fill="white"/>
<path d="M1956.97 177.146C1956.42 177.14 1955.97 177.583 1955.96 178.135C1955.96 178.687 1956.4 179.14 1956.95 179.146C1957.5 179.152 1957.96 178.709 1957.96 178.157C1957.97 177.604 1957.52 177.152 1956.97 177.146Z" fill="white"/>
<path d="M1992.83 283.537C1992.28 283.531 1991.83 283.974 1991.82 284.526C1991.82 285.078 1992.26 285.531 1992.81 285.537C1993.36 285.543 1993.82 285.1 1993.82 284.548C1993.83 283.995 1993.38 283.543 1992.83 283.537Z" fill="white"/>
<path d="M1968.08 167.265C1967.53 167.259 1967.07 167.701 1967.07 168.254C1967.06 168.806 1967.51 169.258 1968.06 169.264C1968.61 169.27 1969.06 168.827 1969.07 168.275C1969.07 167.723 1968.63 167.27 1968.08 167.265Z" fill="white"/>
<path d="M1995.88 185.564C1995.33 185.558 1994.88 186.001 1994.87 186.553C1994.87 187.106 1995.31 187.558 1995.86 187.564C1996.42 187.57 1996.87 187.127 1996.87 186.575C1996.88 186.023 1996.44 185.57 1995.88 185.564Z" fill="white"/>
<path d="M1920.79 240.761C1918.3 240.734 1916.27 242.727 1916.24 245.212C1916.21 247.698 1918.21 249.734 1920.69 249.761C1923.18 249.787 1925.21 247.794 1925.24 245.309C1925.27 242.824 1923.27 240.788 1920.79 240.761Z" fill="white"/>
<path d="M698.79 265.1L692.85 281H690.09L685.5 268.94L680.85 281H678.09L672.18 265.1H674.91L679.53 277.76L684.33 265.1H686.76L691.47 277.82L696.21 265.1H698.79ZM731.538 265.1L725.598 281H722.838L718.248 268.94L713.598 281H710.838L704.928 265.1H707.658L712.278 277.76L717.078 265.1H719.508L724.218 277.82L728.958 265.1H731.538ZM764.286 265.1L758.346 281H755.586L750.996 268.94L746.346 281H743.586L737.676 265.1H740.406L745.026 277.76L749.826 265.1H752.256L756.966 277.82L761.706 265.1H764.286ZM772.902 281.18C772.342 281.18 771.862 280.99 771.462 280.61C771.062 280.21 770.862 279.71 770.862 279.11C770.862 278.53 771.062 278.05 771.462 277.67C771.862 277.27 772.342 277.07 772.902 277.07C773.462 277.07 773.932 277.26 774.312 277.64C774.692 278.02 774.882 278.51 774.882 279.11C774.882 279.71 774.682 280.21 774.282 280.61C773.902 280.99 773.442 281.18 772.902 281.18ZM793.439 264.95C794.979 264.95 796.359 265.29 797.579 265.97C798.799 266.65 799.749 267.6 800.429 268.82C801.129 270.04 801.479 271.45 801.479 273.05C801.479 274.65 801.129 276.07 800.429 277.31C799.749 278.53 798.799 279.48 797.579 280.16C796.359 280.84 794.979 281.18 793.439 281.18C792.299 281.18 791.249 280.96 790.289 280.52C789.349 280.08 788.549 279.44 787.889 278.6V286.82H785.009V265.1H787.769V267.62C788.409 266.74 789.219 266.08 790.199 265.64C791.179 265.18 792.259 264.95 793.439 264.95ZM793.199 278.66C794.219 278.66 795.129 278.43 795.929 277.97C796.749 277.49 797.389 276.83 797.849 275.99C798.329 275.13 798.569 274.15 798.569 273.05C798.569 271.95 798.329 270.98 797.849 270.14C797.389 269.28 796.749 268.62 795.929 268.16C795.129 267.7 794.219 267.47 793.199 267.47C792.199 267.47 791.289 267.71 790.469 268.19C789.669 268.65 789.029 269.3 788.549 270.14C788.089 270.98 787.859 271.95 787.859 273.05C787.859 274.15 788.089 275.13 788.549 275.99C789.009 276.83 789.649 277.49 790.469 277.97C791.289 278.43 792.199 278.66 793.199 278.66ZM811.459 265.1H814.339V281H811.459V265.1ZM812.899 262.04C812.339 262.04 811.869 261.86 811.489 261.5C811.129 261.14 810.949 260.7 810.949 260.18C810.949 259.66 811.129 259.22 811.489 258.86C811.869 258.48 812.339 258.29 812.899 258.29C813.459 258.29 813.919 258.47 814.279 258.83C814.659 259.17 814.849 259.6 814.849 260.12C814.849 260.66 814.659 261.12 814.279 261.5C813.919 261.86 813.459 262.04 812.899 262.04ZM832.647 281.18C831.067 281.18 829.647 280.83 828.387 280.13C827.127 279.43 826.137 278.47 825.417 277.25C824.717 276.01 824.367 274.61 824.367 273.05C824.367 271.49 824.717 270.1 825.417 268.88C826.137 267.64 827.127 266.68 828.387 266C829.647 265.3 831.067 264.95 832.647 264.95C834.227 264.95 835.637 265.3 836.877 266C838.137 266.68 839.117 267.64 839.817 268.88C840.537 270.1 840.897 271.49 840.897 273.05C840.897 274.61 840.537 276.01 839.817 277.25C839.117 278.47 838.137 279.43 836.877 280.13C835.637 280.83 834.227 281.18 832.647 281.18ZM832.647 278.66C833.667 278.66 834.577 278.43 835.377 277.97C836.197 277.49 836.837 276.83 837.297 275.99C837.757 275.13 837.987 274.15 837.987 273.05C837.987 271.95 837.757 270.98 837.297 270.14C836.837 269.28 836.197 268.62 835.377 268.16C834.577 267.7 833.667 267.47 832.647 267.47C831.627 267.47 830.707 267.7 829.887 268.16C829.087 268.62 828.447 269.28 827.967 270.14C827.507 270.98 827.277 271.95 827.277 273.05C827.277 274.15 827.507 275.13 827.967 275.99C828.447 276.83 829.087 277.49 829.887 277.97C830.707 278.43 831.627 278.66 832.647 278.66ZM859.82 280.07C859.4 280.43 858.88 280.71 858.26 280.91C857.64 281.09 857 281.18 856.34 281.18C854.74 281.18 853.5 280.75 852.62 279.89C851.74 279.03 851.3 277.8 851.3 276.2V267.47H848.6V265.1H851.3V261.62H854.18V265.1H858.74V267.47H854.18V276.08C854.18 276.94 854.39 277.6 854.81 278.06C855.25 278.52 855.87 278.75 856.67 278.75C857.55 278.75 858.3 278.5 858.92 278L859.82 280.07ZM872.062 267.77C872.562 266.85 873.302 266.15 874.282 265.67C875.262 265.19 876.452 264.95 877.852 264.95V267.74C877.692 267.72 877.472 267.71 877.192 267.71C875.632 267.71 874.402 268.18 873.502 269.12C872.622 270.04 872.182 271.36 872.182 273.08V281H869.302V265.1H872.062V267.77ZM885.567 287C884.867 287 884.217 286.92 883.617 286.76C883.017 286.6 882.517 286.36 882.117 286.04L883.047 283.82C883.647 284.32 884.427 284.57 885.387 284.57C886.147 284.57 886.727 284.33 887.127 283.85C887.547 283.39 887.757 282.7 887.757 281.78V265.1H890.637V281.72C890.637 283.36 890.197 284.65 889.317 285.59C888.437 286.53 887.187 287 885.567 287ZM889.197 262.04C888.637 262.04 888.167 261.86 887.787 261.5C887.427 261.14 887.247 260.7 887.247 260.18C887.247 259.66 887.427 259.22 887.787 258.86C888.167 258.48 888.637 258.29 889.197 258.29C889.757 258.29 890.217 258.47 890.577 258.83C890.957 259.17 891.147 259.6 891.147 260.12C891.147 260.66 890.957 261.12 890.577 261.5C890.217 261.86 889.757 262.04 889.197 262.04ZM907.922 264.95C910.122 264.95 911.802 265.49 912.962 266.57C914.142 267.65 914.732 269.26 914.732 271.4V281H912.002V278.9C911.522 279.64 910.832 280.21 909.932 280.61C909.052 280.99 908.002 281.18 906.782 281.18C905.002 281.18 903.572 280.75 902.492 279.89C901.432 279.03 900.902 277.9 900.902 276.5C900.902 275.1 901.412 273.98 902.432 273.14C903.452 272.28 905.072 271.85 907.292 271.85H911.852V271.28C911.852 270.04 911.492 269.09 910.772 268.43C910.052 267.77 908.992 267.44 907.592 267.44C906.652 267.44 905.732 267.6 904.832 267.92C903.932 268.22 903.172 268.63 902.552 269.15L901.352 266.99C902.172 266.33 903.152 265.83 904.292 265.49C905.432 265.13 906.642 264.95 907.922 264.95ZM907.262 278.96C908.362 278.96 909.312 278.72 910.112 278.24C910.912 277.74 911.492 277.04 911.852 276.14V273.92H907.412C904.972 273.92 903.752 274.74 903.752 276.38C903.752 277.18 904.062 277.81 904.682 278.27C905.302 278.73 906.162 278.96 907.262 278.96ZM934.552 264.95C936.572 264.95 938.172 265.54 939.352 266.72C940.552 267.88 941.152 269.59 941.152 271.85V281H938.272V272.18C938.272 270.64 937.902 269.48 937.162 268.7C936.422 267.92 935.362 267.53 933.982 267.53C932.422 267.53 931.192 267.99 930.292 268.91C929.392 269.81 928.942 271.11 928.942 272.81V281H926.062V265.1H928.822V267.5C929.402 266.68 930.182 266.05 931.162 265.61C932.162 265.17 933.292 264.95 934.552 264.95ZM952.482 265.1H955.362V281H952.482V265.1ZM953.922 262.04C953.362 262.04 952.892 261.86 952.512 261.5C952.152 261.14 951.972 260.7 951.972 260.18C951.972 259.66 952.152 259.22 952.512 258.86C952.892 258.48 953.362 258.29 953.922 258.29C954.482 258.29 954.942 258.47 955.302 258.83C955.682 259.17 955.872 259.6 955.872 260.12C955.872 260.66 955.682 261.12 955.302 261.5C954.942 261.86 954.482 262.04 953.922 262.04ZM971.421 281.18C970.121 281.18 968.871 281.01 967.671 280.67C966.471 280.31 965.531 279.86 964.851 279.32L966.051 277.04C966.751 277.54 967.601 277.94 968.601 278.24C969.601 278.54 970.611 278.69 971.631 278.69C974.151 278.69 975.411 277.97 975.411 276.53C975.411 276.05 975.241 275.67 974.901 275.39C974.561 275.11 974.131 274.91 973.611 274.79C973.111 274.65 972.391 274.5 971.451 274.34C970.171 274.14 969.121 273.91 968.301 273.65C967.501 273.39 966.811 272.95 966.231 272.33C965.651 271.71 965.361 270.84 965.361 269.72C965.361 268.28 965.961 267.13 967.161 266.27C968.361 265.39 969.971 264.95 971.991 264.95C973.051 264.95 974.111 265.08 975.171 265.34C976.231 265.6 977.101 265.95 977.781 266.39L976.551 268.67C975.251 267.83 973.721 267.41 971.961 267.41C970.741 267.41 969.811 267.61 969.171 268.01C968.531 268.41 968.211 268.94 968.211 269.6C968.211 270.12 968.391 270.53 968.751 270.83C969.111 271.13 969.551 271.35 970.071 271.49C970.611 271.63 971.361 271.79 972.321 271.97C973.601 272.19 974.631 272.43 975.411 272.69C976.211 272.93 976.891 273.35 977.451 273.95C978.011 274.55 978.291 275.39 978.291 276.47C978.291 277.91 977.671 279.06 976.431 279.92C975.211 280.76 973.541 281.18 971.421 281.18ZM999.68 278.63V281H986.36V279.14L995.75 267.47H986.54V265.1H999.44V266.99L990.05 278.63H999.68ZM1023.67 273.14C1023.67 273.36 1023.65 273.65 1023.61 274.01H1010.71C1010.89 275.41 1011.5 276.54 1012.54 277.4C1013.6 278.24 1014.91 278.66 1016.47 278.66C1018.37 278.66 1019.9 278.02 1021.06 276.74L1022.65 278.6C1021.93 279.44 1021.03 280.08 1019.95 280.52C1018.89 280.96 1017.7 281.18 1016.38 281.18C1014.7 281.18 1013.21 280.84 1011.91 280.16C1010.61 279.46 1009.6 278.49 1008.88 277.25C1008.18 276.01 1007.83 274.61 1007.83 273.05C1007.83 271.51 1008.17 270.12 1008.85 268.88C1009.55 267.64 1010.5 266.68 1011.7 266C1012.92 265.3 1014.29 264.95 1015.81 264.95C1017.33 264.95 1018.68 265.3 1019.86 266C1021.06 266.68 1021.99 267.64 1022.65 268.88C1023.33 270.12 1023.67 271.54 1023.67 273.14ZM1015.81 267.38C1014.43 267.38 1013.27 267.8 1012.33 268.64C1011.41 269.48 1010.87 270.58 1010.71 271.94H1020.91C1020.75 270.6 1020.2 269.51 1019.26 268.67C1018.34 267.81 1017.19 267.38 1015.81 267.38ZM1057.44 265.1L1051.5 281H1048.74L1044.15 268.94L1039.5 281H1036.74L1030.83 265.1H1033.56L1038.18 277.76L1042.98 265.1H1045.41L1050.12 277.82L1054.86 265.1H1057.44ZM1070.71 281.18C1069.41 281.18 1068.16 281.01 1066.96 280.67C1065.76 280.31 1064.82 279.86 1064.14 279.32L1065.34 277.04C1066.04 277.54 1066.89 277.94 1067.89 278.24C1068.89 278.54 1069.9 278.69 1070.92 278.69C1073.44 278.69 1074.7 277.97 1074.7 276.53C1074.7 276.05 1074.53 275.67 1074.19 275.39C1073.85 275.11 1073.42 274.91 1072.9 274.79C1072.4 274.65 1071.68 274.5 1070.74 274.34C1069.46 274.14 1068.41 273.91 1067.59 273.65C1066.79 273.39 1066.1 272.95 1065.52 272.33C1064.94 271.71 1064.65 270.84 1064.65 269.72C1064.65 268.28 1065.25 267.13 1066.45 266.27C1067.65 265.39 1069.26 264.95 1071.28 264.95C1072.34 264.95 1073.4 265.08 1074.46 265.34C1075.52 265.6 1076.39 265.95 1077.07 266.39L1075.84 268.67C1074.54 267.83 1073.01 267.41 1071.25 267.41C1070.03 267.41 1069.1 267.61 1068.46 268.01C1067.82 268.41 1067.5 268.94 1067.5 269.6C1067.5 270.12 1067.68 270.53 1068.04 270.83C1068.4 271.13 1068.84 271.35 1069.36 271.49C1069.9 271.63 1070.65 271.79 1071.61 271.97C1072.89 272.19 1073.92 272.43 1074.7 272.69C1075.5 272.93 1076.18 273.35 1076.74 273.95C1077.3 274.55 1077.58 275.39 1077.58 276.47C1077.58 277.91 1076.96 279.06 1075.72 279.92C1074.5 280.76 1072.83 281.18 1070.71 281.18ZM1093.36 273.59L1090.06 276.65V281H1087.18V258.74H1090.06V273.02L1098.73 265.1H1102.21L1095.52 271.67L1102.87 281H1099.33L1093.36 273.59ZM1111.46 265.1H1114.34V281H1111.46V265.1ZM1112.9 262.04C1112.34 262.04 1111.87 261.86 1111.49 261.5C1111.13 261.14 1110.95 260.7 1110.95 260.18C1110.95 259.66 1111.13 259.22 1111.49 258.86C1111.87 258.48 1112.34 258.29 1112.9 258.29C1113.46 258.29 1113.92 258.47 1114.28 258.83C1114.66 259.17 1114.85 259.6 1114.85 260.12C1114.85 260.66 1114.66 261.12 1114.28 261.5C1113.92 261.86 1113.46 262.04 1112.9 262.04ZM1126.53 281.18C1125.97 281.18 1125.49 280.99 1125.09 280.61C1124.69 280.21 1124.49 279.71 1124.49 279.11C1124.49 278.53 1124.69 278.05 1125.09 277.67C1125.49 277.27 1125.97 277.07 1126.53 277.07C1127.09 277.07 1127.56 277.26 1127.94 277.64C1128.32 278.02 1128.51 278.51 1128.51 279.11C1128.51 279.71 1128.31 280.21 1127.91 280.61C1127.53 280.99 1127.07 281.18 1126.53 281.18ZM1147.07 264.95C1148.61 264.95 1149.99 265.29 1151.21 265.97C1152.43 266.65 1153.38 267.6 1154.06 268.82C1154.76 270.04 1155.11 271.45 1155.11 273.05C1155.11 274.65 1154.76 276.07 1154.06 277.31C1153.38 278.53 1152.43 279.48 1151.21 280.16C1149.99 280.84 1148.61 281.18 1147.07 281.18C1145.93 281.18 1144.88 280.96 1143.92 280.52C1142.98 280.08 1142.18 279.44 1141.52 278.6V286.82H1138.64V265.1H1141.4V267.62C1142.04 266.74 1142.85 266.08 1143.83 265.64C1144.81 265.18 1145.89 264.95 1147.07 264.95ZM1146.83 278.66C1147.85 278.66 1148.76 278.43 1149.56 277.97C1150.38 277.49 1151.02 276.83 1151.48 275.99C1151.96 275.13 1152.2 274.15 1152.2 273.05C1152.2 271.95 1151.96 270.98 1151.48 270.14C1151.02 269.28 1150.38 268.62 1149.56 268.16C1148.76 267.7 1147.85 267.47 1146.83 267.47C1145.83 267.47 1144.92 267.71 1144.1 268.19C1143.3 268.65 1142.66 269.3 1142.18 270.14C1141.72 270.98 1141.49 271.95 1141.49 273.05C1141.49 274.15 1141.72 275.13 1142.18 275.99C1142.64 276.83 1143.28 277.49 1144.1 277.97C1144.92 278.43 1145.83 278.66 1146.83 278.66ZM1165.09 258.74H1167.97V281H1165.09V258.74Z" fill="#182F53"/>
<path d="M1912 48C1915.31 48 1918 45.3137 1918 42C1918 38.6863 1915.31 36 1912 36C1908.69 36 1906 38.6863 1906 42C1906 45.3137 1908.69 48 1912 48Z" fill="#CFF5EA"/>
</g>
<defs>
<clipPath id="clip0">
<rect width="2000" height="300" fill="white"/>
</clipPath>
</defs>
</svg>
