<svg width="2000" height="1005" viewBox="0 0 2000 1005" fill="none" xmlns="http://www.w3.org/2000/svg">
<rect width="2000" height="343" fill="#CFF5EA"/>
<circle cx="1915" cy="954" r="17" transform="rotate(39.2041 1915 954)" fill="#CFF5EA"/>
<circle cx="1961.32" cy="989.32" r="3.0701" transform="rotate(39.2041 1961.32 989.32)" fill="#CFF5EA"/>
<circle cx="1966.32" cy="958.32" r="3.0701" transform="rotate(39.2041 1966.32 958.32)" fill="#CFF5EA"/>
<circle cx="1952.32" cy="938.32" r="3.0701" transform="rotate(39.2041 1952.32 938.32)" fill="#CFF5EA"/>
<circle cx="1926.32" cy="898.32" r="3.0701" transform="rotate(39.2041 1926.32 898.32)" fill="#CFF5EA"/>
<circle cx="1961.32" cy="989.32" r="3.0701" transform="rotate(39.2041 1961.32 989.32)" fill="#CFF5EA"/>
<circle cx="1966.32" cy="958.32" r="3.0701" transform="rotate(39.2041 1966.32 958.32)" fill="#CFF5EA"/>
<circle cx="1952.32" cy="938.32" r="3.0701" transform="rotate(39.2041 1952.32 938.32)" fill="#CFF5EA"/>
<circle cx="1926.32" cy="898.32" r="3.0701" transform="rotate(39.2041 1926.32 898.32)" fill="#CFF5EA"/>
<circle cx="1961.32" cy="989.32" r="3.0701" transform="rotate(39.2041 1961.32 989.32)" fill="#CFF5EA"/>
<circle cx="1966.32" cy="958.32" r="3.0701" transform="rotate(39.2041 1966.32 958.32)" fill="#CFF5EA"/>
<circle cx="1952.32" cy="938.32" r="3.0701" transform="rotate(39.2041 1952.32 938.32)" fill="#CFF5EA"/>
<circle cx="1926.32" cy="898.32" r="3.0701" transform="rotate(39.2041 1926.32 898.32)" fill="#CFF5EA"/>
<circle cx="1961.32" cy="989.32" r="3.0701" transform="rotate(39.2041 1961.32 989.32)" fill="#CFF5EA"/>
<circle cx="1966.32" cy="958.32" r="3.0701" transform="rotate(39.2041 1966.32 958.32)" fill="#CFF5EA"/>
<circle cx="1952.32" cy="938.32" r="3.0701" transform="rotate(39.2041 1952.32 938.32)" fill="#CFF5EA"/>
<circle cx="1926.32" cy="898.32" r="3.0701" transform="rotate(39.2041 1926.32 898.32)" fill="#CFF5EA"/>
<circle cx="1818.32" cy="812.32" r="3.0701" transform="rotate(39.2041 1818.32 812.32)" fill="white"/>
<circle cx="1822.32" cy="719.32" r="3.0701" transform="rotate(39.2041 1822.32 719.32)" fill="white"/>
<circle cx="1882.32" cy="691.32" r="3.0701" transform="rotate(39.2041 1882.32 691.32)" fill="white"/>
<circle cx="1915.32" cy="612.32" r="3.0701" transform="rotate(39.2041 1915.32 612.32)" fill="white"/>
<circle cx="1802.32" cy="549.32" r="3.0701" transform="rotate(39.2041 1802.32 549.32)" fill="white"/>
<circle cx="1947.32" cy="998.32" r="3.0701" transform="rotate(39.2041 1947.32 998.32)" fill="#CFF5EA"/>
<circle cx="1954.32" cy="912.32" r="3.0701" transform="rotate(39.2041 1954.32 912.32)" fill="#CFF5EA"/>
<circle cx="1966.32" cy="884.32" r="3.0701" transform="rotate(39.2041 1966.32 884.32)" fill="#CFF5EA"/>
<circle cx="1882.32" cy="846.32" r="3.0701" transform="rotate(39.2041 1882.32 846.32)" fill="#CFF5EA"/>
<circle cx="1910.32" cy="769.32" r="3.0701" transform="rotate(39.2041 1910.32 769.32)" fill="#CFF5EA"/>
<circle cx="1966.32" cy="672.32" r="3.0701" transform="rotate(39.2041 1966.32 672.32)" fill="#CFF5EA"/>
<circle cx="1957.32" cy="581.32" r="3.0701" transform="rotate(39.2041 1957.32 581.32)" fill="#CFF5EA"/>
<circle cx="1794.32" cy="437.32" r="3.0701" transform="rotate(39.2041 1794.32 437.32)" fill="#CFF5EA"/>
<circle cx="1890.32" cy="536.32" r="3.0701" transform="rotate(39.2041 1890.32 536.32)" fill="#CFF5EA"/>
<circle cx="1966.32" cy="793.32" r="3.0701" transform="rotate(39.2041 1966.32 793.32)" fill="#CFF5EA"/>
<circle cx="1785.32" cy="719.32" r="3.0701" transform="rotate(39.2041 1785.32 719.32)" fill="#CFF5EA"/>
<circle cx="1873.5" cy="935.5" r="7.5" fill="#CFF5EA"/>
<circle cx="1848.5" cy="872.5" r="7.5" fill="#CFF5EA"/>
<circle cx="1873.5" cy="997.5" r="7.5" fill="#CFF5EA"/>
<circle cx="1894.5" cy="722.5" r="7.5" fill="#CFF5EA"/>
<circle cx="1894.5" cy="905.5" r="7.5" fill="#CFF5EA"/>
<circle cx="1938.5" cy="864.5" r="7.5" fill="#CFF5EA"/>
<circle cx="1931.5" cy="832.5" r="7.5" fill="#CFF5EA"/>
<circle cx="1946.5" cy="751.5" r="7.5" fill="#CFF5EA"/>
<circle cx="1939.5" cy="707.5" r="7.5" fill="#CFF5EA"/>
<circle cx="1915.5" cy="657.5" r="7.5" fill="#CFF5EA"/>
<circle cx="1773.5" cy="576.5" r="7.5" fill="#CFF5EA"/>
<circle cx="1873.5" cy="620.5" r="7.5" fill="#CFF5EA"/>
<circle cx="1843.5" cy="411.5" r="7.5" fill="#CFF5EA"/>
<circle cx="1915" cy="825" r="17" fill="#CFF5EA"/>
<circle cx="1854" cy="761" r="17" fill="#CFF5EA"/>
<circle cx="1843.5" cy="605.5" r="7.5" fill="white"/>
<circle cx="1963.5" cy="475.5" r="7.5" fill="white"/>
<circle cx="1940.5" cy="299.5" r="7.5" fill="white"/>
<circle cx="1764.5" cy="284.5" r="7.5" fill="white"/>
<circle cx="1932.5" cy="404.5" r="7.5" fill="white"/>
<circle cx="1896.5" cy="247.5" r="7.5" fill="white"/>
<circle cx="1978.5" cy="23.5" r="7.5" fill="white"/>
<circle cx="1771.5" cy="38.5" r="7.5" fill="white"/>
<circle cx="1940" cy="532" r="22" fill="#CFF5EA"/>
<circle cx="1764" cy="476" r="22" fill="white"/>
<circle cx="1766" cy="382" r="22" fill="white"/>
<circle cx="1874" cy="477" r="22" fill="white"/>
<circle cx="1859" cy="149" r="22" fill="white"/>
<circle cx="1944" cy="132" r="22" fill="white"/>
<circle cx="1829" cy="305" r="22" fill="white"/>
<circle cx="1829" cy="509" r="22" fill="#CFF5EA"/>
<circle cx="1893" cy="426" r="22" fill="#CFF5EA"/>
<circle cx="1939" cy="341" r="22" fill="#CFF5EA"/>
<circle cx="1786.5" cy="341.5" r="42.5" fill="#CFF5EA"/>
<circle cx="1806.5" cy="370.5" r="7.5" fill="white"/>
<circle cx="1880.5" cy="419.5" r="7.5" fill="white"/>
<circle cx="1922.5" cy="517.5" r="7.5" fill="white"/>
<circle cx="1978.5" cy="240.5" r="7.5" fill="white"/>
<circle cx="1844.5" cy="597.5" r="7.5" fill="white"/>
<circle cx="1960.5" cy="650.5" r="7.5" fill="white"/>
<circle cx="1955.5" cy="444.5" r="7.5" fill="white"/>
<circle cx="1872.5" cy="341.5" r="7.5" fill="white"/>
<path d="M1065.28 102V130H1061.28V117.52H1045.2V130H1041.2V102H1045.2V114.04H1061.28V102H1065.28ZM1081.1 108.8H1084.94V130H1081.1V108.8ZM1083.02 104.72C1082.27 104.72 1081.65 104.48 1081.14 104C1080.66 103.52 1080.42 102.933 1080.42 102.24C1080.42 101.547 1080.66 100.96 1081.14 100.48C1081.65 99.9733 1082.27 99.72 1083.02 99.72C1083.77 99.72 1084.38 99.96 1084.86 100.44C1085.37 100.893 1085.62 101.467 1085.62 102.16C1085.62 102.88 1085.37 103.493 1084.86 104C1084.38 104.48 1083.77 104.72 1083.02 104.72ZM1101.23 124.76C1101.98 124.76 1102.59 125.027 1103.07 125.56C1103.58 126.067 1103.83 126.707 1103.83 127.48C1103.83 127.88 1103.78 128.267 1103.67 128.64C1103.59 129.013 1103.42 129.587 1103.15 130.36L1101.27 135.92H1098.75L1100.23 129.96C1099.73 129.773 1099.31 129.467 1098.99 129.04C1098.7 128.587 1098.55 128.067 1098.55 127.48C1098.55 126.68 1098.81 126.027 1099.31 125.52C1099.82 125.013 1100.46 124.76 1101.23 124.76ZM1136.64 102H1140.64V130H1136.64V102ZM1157.42 100.08C1158.17 100.08 1158.78 100.347 1159.26 100.88C1159.77 101.387 1160.02 102.027 1160.02 102.8C1160.02 103.2 1159.98 103.6 1159.9 104C1159.82 104.373 1159.65 104.92 1159.38 105.64L1157.46 111.24H1154.94L1156.42 105.28C1155.91 105.093 1155.5 104.787 1155.18 104.36C1154.89 103.907 1154.74 103.387 1154.74 102.8C1154.74 102 1154.99 101.347 1155.5 100.84C1156.01 100.333 1156.65 100.08 1157.42 100.08ZM1200.04 108.6C1202.71 108.6 1204.82 109.373 1206.36 110.92C1207.94 112.467 1208.72 114.76 1208.72 117.8V130H1204.88V118.24C1204.88 116.187 1204.4 114.64 1203.44 113.6C1202.51 112.56 1201.16 112.04 1199.4 112.04C1197.46 112.04 1195.91 112.653 1194.76 113.88C1193.62 115.08 1193.04 116.813 1193.04 119.08V130H1189.2V118.24C1189.2 116.187 1188.72 114.64 1187.76 113.6C1186.83 112.56 1185.48 112.04 1183.72 112.04C1181.78 112.04 1180.23 112.653 1179.08 113.88C1177.94 115.08 1177.36 116.813 1177.36 119.08V130H1173.52V108.8H1177.2V111.96C1177.98 110.867 1178.99 110.04 1180.24 109.48C1181.5 108.893 1182.92 108.6 1184.52 108.6C1186.18 108.6 1187.64 108.933 1188.92 109.6C1190.2 110.267 1191.19 111.24 1191.88 112.52C1192.68 111.293 1193.79 110.333 1195.2 109.64C1196.64 108.947 1198.26 108.6 1200.04 108.6ZM1254.01 102C1257.64 102 1260.49 102.867 1262.57 104.6C1264.65 106.333 1265.69 108.72 1265.69 111.76C1265.69 114.8 1264.65 117.187 1262.57 118.92C1260.49 120.653 1257.64 121.52 1254.01 121.52H1247.09V130H1243.09V102H1254.01ZM1253.89 118.04C1256.42 118.04 1258.36 117.507 1259.69 116.44C1261.02 115.347 1261.69 113.787 1261.69 111.76C1261.69 109.733 1261.02 108.187 1259.69 107.12C1258.36 106.027 1256.42 105.48 1253.89 105.48H1247.09V118.04H1253.89ZM1298.09 119.52C1298.09 119.813 1298.06 120.2 1298.01 120.68H1280.81C1281.05 122.547 1281.86 124.053 1283.25 125.2C1284.66 126.32 1286.41 126.88 1288.49 126.88C1291.02 126.88 1293.06 126.027 1294.61 124.32L1296.73 126.8C1295.77 127.92 1294.57 128.773 1293.13 129.36C1291.72 129.947 1290.13 130.24 1288.37 130.24C1286.13 130.24 1284.14 129.787 1282.41 128.88C1280.68 127.947 1279.33 126.653 1278.37 125C1277.44 123.347 1276.97 121.48 1276.97 119.4C1276.97 117.347 1277.42 115.493 1278.33 113.84C1279.26 112.187 1280.53 110.907 1282.13 110C1283.76 109.067 1285.58 108.6 1287.61 108.6C1289.64 108.6 1291.44 109.067 1293.01 110C1294.61 110.907 1295.85 112.187 1296.73 113.84C1297.64 115.493 1298.09 117.387 1298.09 119.52ZM1287.61 111.84C1285.77 111.84 1284.22 112.4 1282.97 113.52C1281.74 114.64 1281.02 116.107 1280.81 117.92H1294.41C1294.2 116.133 1293.46 114.68 1292.21 113.56C1290.98 112.413 1289.45 111.84 1287.61 111.84ZM1323.34 128.76C1322.78 129.24 1322.09 129.613 1321.26 129.88C1320.43 130.12 1319.58 130.24 1318.7 130.24C1316.57 130.24 1314.91 129.667 1313.74 128.52C1312.57 127.373 1311.98 125.733 1311.98 123.6V111.96H1308.38V108.8H1311.98V104.16H1315.82V108.8H1321.9V111.96H1315.82V123.44C1315.82 124.587 1316.1 125.467 1316.66 126.08C1317.25 126.693 1318.07 127 1319.14 127C1320.31 127 1321.31 126.667 1322.14 126L1323.34 128.76ZM1354.44 119.52C1354.44 119.813 1354.41 120.2 1354.36 120.68H1337.16C1337.4 122.547 1338.21 124.053 1339.6 125.2C1341.01 126.32 1342.76 126.88 1344.84 126.88C1347.37 126.88 1349.41 126.027 1350.96 124.32L1353.08 126.8C1352.12 127.92 1350.92 128.773 1349.48 129.36C1348.07 129.947 1346.48 130.24 1344.72 130.24C1342.48 130.24 1340.49 129.787 1338.76 128.88C1337.03 127.947 1335.68 126.653 1334.72 125C1333.79 123.347 1333.32 121.48 1333.32 119.4C1333.32 117.347 1333.77 115.493 1334.68 113.84C1335.61 112.187 1336.88 110.907 1338.48 110C1340.11 109.067 1341.93 108.6 1343.96 108.6C1345.99 108.6 1347.79 109.067 1349.36 110C1350.96 110.907 1352.2 112.187 1353.08 113.84C1353.99 115.493 1354.44 117.387 1354.44 119.52ZM1343.96 111.84C1342.12 111.84 1340.57 112.4 1339.32 113.52C1338.09 114.64 1337.37 116.107 1337.16 117.92H1350.76C1350.55 116.133 1349.81 114.68 1348.56 113.56C1347.33 112.413 1345.8 111.84 1343.96 111.84ZM1371.45 112.36C1372.12 111.133 1373.11 110.2 1374.41 109.56C1375.72 108.92 1377.31 108.6 1379.17 108.6V112.32C1378.96 112.293 1378.67 112.28 1378.29 112.28C1376.21 112.28 1374.57 112.907 1373.37 114.16C1372.2 115.387 1371.61 117.147 1371.61 119.44V130H1367.77V108.8H1371.45V112.36ZM1415.08 130.32C1413.4 130.32 1411.84 129.973 1410.4 129.28C1408.96 128.56 1407.8 127.56 1406.92 126.28L1409.24 123.56C1410.79 125.773 1412.73 126.88 1415.08 126.88C1416.65 126.88 1417.84 126.4 1418.64 125.44C1419.47 124.48 1419.88 123.067 1419.88 121.2V105.48H1409.76V102H1423.84V121C1423.84 124.093 1423.09 126.427 1421.6 128C1420.13 129.547 1417.96 130.32 1415.08 130.32ZM1447.15 108.6C1450.08 108.6 1452.32 109.32 1453.87 110.76C1455.44 112.2 1456.23 114.347 1456.23 117.2V130H1452.59V127.2C1451.95 128.187 1451.03 128.947 1449.83 129.48C1448.66 129.987 1447.26 130.24 1445.63 130.24C1443.26 130.24 1441.35 129.667 1439.91 128.52C1438.5 127.373 1437.79 125.867 1437.79 124C1437.79 122.133 1438.47 120.64 1439.83 119.52C1441.19 118.373 1443.35 117.8 1446.31 117.8H1452.39V117.04C1452.39 115.387 1451.91 114.12 1450.95 113.24C1449.99 112.36 1448.58 111.92 1446.71 111.92C1445.46 111.92 1444.23 112.133 1443.03 112.56C1441.83 112.96 1440.82 113.507 1439.99 114.2L1438.39 111.32C1439.48 110.44 1440.79 109.773 1442.31 109.32C1443.83 108.84 1445.44 108.6 1447.15 108.6ZM1446.27 127.28C1447.74 127.28 1449 126.96 1450.07 126.32C1451.14 125.653 1451.91 124.72 1452.39 123.52V120.56H1446.47C1443.22 120.56 1441.59 121.653 1441.59 123.84C1441.59 124.907 1442 125.747 1442.83 126.36C1443.66 126.973 1444.8 127.28 1446.27 127.28ZM1482.66 108.6C1485.35 108.6 1487.48 109.387 1489.06 110.96C1490.66 112.507 1491.46 114.787 1491.46 117.8V130H1487.62V118.24C1487.62 116.187 1487.12 114.64 1486.14 113.6C1485.15 112.56 1483.74 112.04 1481.9 112.04C1479.82 112.04 1478.18 112.653 1476.98 113.88C1475.78 115.08 1475.18 116.813 1475.18 119.08V130H1471.34V108.8H1475.02V112C1475.79 110.907 1476.83 110.067 1478.14 109.48C1479.47 108.893 1480.98 108.6 1482.66 108.6ZM1506.56 108.8H1510.4V130H1506.56V108.8ZM1508.48 104.72C1507.74 104.72 1507.11 104.48 1506.6 104C1506.12 103.52 1505.88 102.933 1505.88 102.24C1505.88 101.547 1506.12 100.96 1506.6 100.48C1507.11 99.9733 1507.74 99.72 1508.48 99.72C1509.23 99.72 1509.84 99.96 1510.32 100.44C1510.83 100.893 1511.08 101.467 1511.08 102.16C1511.08 102.88 1510.83 103.493 1510.32 104C1509.84 104.48 1509.23 104.72 1508.48 104.72ZM1531.81 130.24C1530.08 130.24 1528.41 130.013 1526.81 129.56C1525.21 129.08 1523.96 128.48 1523.05 127.76L1524.65 124.72C1525.59 125.387 1526.72 125.92 1528.05 126.32C1529.39 126.72 1530.73 126.92 1532.09 126.92C1535.45 126.92 1537.13 125.96 1537.13 124.04C1537.13 123.4 1536.91 122.893 1536.45 122.52C1536 122.147 1535.43 121.88 1534.73 121.72C1534.07 121.533 1533.11 121.333 1531.85 121.12C1530.15 120.853 1528.75 120.547 1527.65 120.2C1526.59 119.853 1525.67 119.267 1524.89 118.44C1524.12 117.613 1523.73 116.453 1523.73 114.96C1523.73 113.04 1524.53 111.507 1526.13 110.36C1527.73 109.187 1529.88 108.6 1532.57 108.6C1533.99 108.6 1535.4 108.773 1536.81 109.12C1538.23 109.467 1539.39 109.933 1540.29 110.52L1538.65 113.56C1536.92 112.44 1534.88 111.88 1532.53 111.88C1530.91 111.88 1529.67 112.147 1528.81 112.68C1527.96 113.213 1527.53 113.92 1527.53 114.8C1527.53 115.493 1527.77 116.04 1528.25 116.44C1528.73 116.84 1529.32 117.133 1530.01 117.32C1530.73 117.507 1531.73 117.72 1533.01 117.96C1534.72 118.253 1536.09 118.573 1537.13 118.92C1538.2 119.24 1539.11 119.8 1539.85 120.6C1540.6 121.4 1540.97 122.52 1540.97 123.96C1540.97 125.88 1540.15 127.413 1538.49 128.56C1536.87 129.68 1534.64 130.24 1531.81 130.24ZM1569.49 126.84V130H1551.73V127.52L1564.25 111.96H1551.97V108.8H1569.17V111.32L1556.65 126.84H1569.49ZM1601.48 119.52C1601.48 119.813 1601.45 120.2 1601.4 120.68H1584.2C1584.44 122.547 1585.25 124.053 1586.64 125.2C1588.05 126.32 1589.8 126.88 1591.88 126.88C1594.41 126.88 1596.45 126.027 1598 124.32L1600.12 126.8C1599.16 127.92 1597.96 128.773 1596.52 129.36C1595.11 129.947 1593.52 130.24 1591.76 130.24C1589.52 130.24 1587.53 129.787 1585.8 128.88C1584.07 127.947 1582.72 126.653 1581.76 125C1580.83 123.347 1580.36 121.48 1580.36 119.4C1580.36 117.347 1580.81 115.493 1581.72 113.84C1582.65 112.187 1583.92 110.907 1585.52 110C1587.15 109.067 1588.97 108.6 1591 108.6C1593.03 108.6 1594.83 109.067 1596.4 110C1598 110.907 1599.24 112.187 1600.12 113.84C1601.03 115.493 1601.48 117.387 1601.48 119.52ZM1591 111.84C1589.16 111.84 1587.61 112.4 1586.36 113.52C1585.13 114.64 1584.41 116.107 1584.2 117.92H1597.8C1597.59 116.133 1596.85 114.68 1595.6 113.56C1594.37 112.413 1592.84 111.84 1591 111.84ZM1646.5 108.8L1638.58 130H1634.9L1628.78 113.92L1622.58 130H1618.9L1611.02 108.8H1614.66L1620.82 125.68L1627.22 108.8H1630.46L1636.74 125.76L1643.06 108.8H1646.5ZM1664.2 130.24C1662.47 130.24 1660.8 130.013 1659.2 129.56C1657.6 129.08 1656.35 128.48 1655.44 127.76L1657.04 124.72C1657.98 125.387 1659.11 125.92 1660.44 126.32C1661.78 126.72 1663.12 126.92 1664.48 126.92C1667.84 126.92 1669.52 125.96 1669.52 124.04C1669.52 123.4 1669.3 122.893 1668.84 122.52C1668.39 122.147 1667.82 121.88 1667.12 121.72C1666.46 121.533 1665.5 121.333 1664.24 121.12C1662.54 120.853 1661.14 120.547 1660.04 120.2C1658.98 119.853 1658.06 119.267 1657.28 118.44C1656.51 117.613 1656.12 116.453 1656.12 114.96C1656.12 113.04 1656.92 111.507 1658.52 110.36C1660.12 109.187 1662.27 108.6 1664.96 108.6C1666.38 108.6 1667.79 108.773 1669.2 109.12C1670.62 109.467 1671.78 109.933 1672.68 110.52L1671.04 113.56C1669.31 112.44 1667.27 111.88 1664.92 111.88C1663.3 111.88 1662.06 112.147 1661.2 112.68C1660.35 113.213 1659.92 113.92 1659.92 114.8C1659.92 115.493 1660.16 116.04 1660.64 116.44C1661.12 116.84 1661.71 117.133 1662.4 117.32C1663.12 117.507 1664.12 117.72 1665.4 117.96C1667.11 118.253 1668.48 118.573 1669.52 118.92C1670.59 119.24 1671.5 119.8 1672.24 120.6C1672.99 121.4 1673.36 122.52 1673.36 123.96C1673.36 125.88 1672.54 127.413 1670.88 128.56C1669.26 129.68 1667.03 130.24 1664.2 130.24ZM1694.4 120.12L1690 124.2V130H1686.16V100.32H1690V119.36L1701.56 108.8H1706.2L1697.28 117.56L1707.08 130H1702.36L1694.4 120.12ZM1718.54 108.8H1722.38V130H1718.54V108.8ZM1720.46 104.72C1719.71 104.72 1719.09 104.48 1718.58 104C1718.1 103.52 1717.86 102.933 1717.86 102.24C1717.86 101.547 1718.1 100.96 1718.58 100.48C1719.09 99.9733 1719.71 99.72 1720.46 99.72C1721.21 99.72 1721.82 99.96 1722.3 100.44C1722.81 100.893 1723.06 101.467 1723.06 102.16C1723.06 102.88 1722.81 103.493 1722.3 104C1721.82 104.48 1721.21 104.72 1720.46 104.72ZM1037.74 219.4C1036.99 219.4 1036.3 219.315 1035.66 219.144C1035.02 218.973 1034.48 218.717 1034.06 218.376L1035.05 216.008C1035.69 216.541 1036.52 216.808 1037.54 216.808C1038.35 216.808 1038.97 216.552 1039.4 216.04C1039.85 215.549 1040.07 214.813 1040.07 213.832V196.04H1043.14V213.768C1043.14 215.517 1042.67 216.893 1041.74 217.896C1040.8 218.899 1039.46 219.4 1037.74 219.4ZM1041.61 192.776C1041.01 192.776 1040.51 192.584 1040.1 192.2C1039.72 191.816 1039.53 191.347 1039.53 190.792C1039.53 190.237 1039.72 189.768 1040.1 189.384C1040.51 188.979 1041.01 188.776 1041.61 188.776C1042.21 188.776 1042.7 188.968 1043.08 189.352C1043.49 189.715 1043.69 190.173 1043.69 190.728C1043.69 191.304 1043.49 191.795 1043.08 192.2C1042.7 192.584 1042.21 192.776 1041.61 192.776ZM1071.21 196.04V213H1068.3V210.44C1067.68 211.315 1066.86 211.997 1065.84 212.488C1064.84 212.957 1063.74 213.192 1062.54 213.192C1060.28 213.192 1058.5 212.573 1057.2 211.336C1055.9 210.077 1055.25 208.232 1055.25 205.8V196.04H1058.32V205.448C1058.32 207.091 1058.71 208.339 1059.5 209.192C1060.29 210.024 1061.42 210.44 1062.89 210.44C1064.52 210.44 1065.8 209.949 1066.73 208.968C1067.67 207.987 1068.14 206.6 1068.14 204.808V196.04H1071.21ZM1092.52 195.88C1094.67 195.88 1096.38 196.509 1097.64 197.768C1098.92 199.005 1099.56 200.829 1099.56 203.24V213H1096.49V203.592C1096.49 201.949 1096.09 200.712 1095.3 199.88C1094.51 199.048 1093.38 198.632 1091.91 198.632C1090.25 198.632 1088.93 199.123 1087.97 200.104C1087.01 201.064 1086.53 202.451 1086.53 204.264V213H1083.46V196.04H1086.41V198.6C1087.02 197.725 1087.86 197.053 1088.9 196.584C1089.97 196.115 1091.17 195.88 1092.52 195.88ZM1111.64 196.04H1114.72V213H1111.64V196.04ZM1113.18 192.776C1112.58 192.776 1112.08 192.584 1111.68 192.2C1111.29 191.816 1111.1 191.347 1111.1 190.792C1111.1 190.237 1111.29 189.768 1111.68 189.384C1112.08 188.979 1112.58 188.776 1113.18 188.776C1113.78 188.776 1114.27 188.968 1114.65 189.352C1115.06 189.715 1115.26 190.173 1115.26 190.728C1115.26 191.304 1115.06 191.795 1114.65 192.2C1114.27 192.584 1113.78 192.776 1113.18 192.776ZM1134.24 213.192C1132.56 213.192 1131.04 212.819 1129.7 212.072C1128.36 211.325 1127.3 210.301 1126.53 209C1125.79 207.677 1125.41 206.184 1125.41 204.52C1125.41 202.856 1125.79 201.373 1126.53 200.072C1127.3 198.749 1128.36 197.725 1129.7 197C1131.04 196.253 1132.56 195.88 1134.24 195.88C1135.93 195.88 1137.43 196.253 1138.76 197C1140.1 197.725 1141.15 198.749 1141.89 200.072C1142.66 201.373 1143.04 202.856 1143.04 204.52C1143.04 206.184 1142.66 207.677 1141.89 209C1141.15 210.301 1140.1 211.325 1138.76 212.072C1137.43 212.819 1135.93 213.192 1134.24 213.192ZM1134.24 210.504C1135.33 210.504 1136.3 210.259 1137.16 209.768C1138.03 209.256 1138.71 208.552 1139.2 207.656C1139.7 206.739 1139.94 205.693 1139.94 204.52C1139.94 203.347 1139.7 202.312 1139.2 201.416C1138.71 200.499 1138.03 199.795 1137.16 199.304C1136.3 198.813 1135.33 198.568 1134.24 198.568C1133.16 198.568 1132.18 198.813 1131.3 199.304C1130.45 199.795 1129.76 200.499 1129.25 201.416C1128.76 202.312 1128.52 203.347 1128.52 204.52C1128.52 205.693 1128.76 206.739 1129.25 207.656C1129.76 208.552 1130.45 209.256 1131.3 209.768C1132.18 210.259 1133.16 210.504 1134.24 210.504ZM1156.64 198.888C1157.17 197.907 1157.96 197.16 1159.01 196.648C1160.05 196.136 1161.32 195.88 1162.81 195.88V198.856C1162.64 198.835 1162.41 198.824 1162.11 198.824C1160.45 198.824 1159.13 199.325 1158.17 200.328C1157.23 201.309 1156.77 202.717 1156.77 204.552V213H1153.69V196.04H1156.64V198.888ZM1194.42 191.592C1192.59 191.592 1191.67 192.584 1191.67 194.568V196.04H1196.6V198.568H1191.73V213H1188.66V198.568H1185.78V196.04H1188.66V194.536C1188.66 192.851 1189.15 191.517 1190.13 190.536C1191.11 189.555 1192.49 189.064 1194.26 189.064C1194.94 189.064 1195.58 189.149 1196.18 189.32C1196.78 189.491 1197.29 189.736 1197.72 190.056L1196.79 192.392C1196.08 191.859 1195.29 191.592 1194.42 191.592ZM1221.7 196.04V213H1218.79V210.44C1218.17 211.315 1217.35 211.997 1216.33 212.488C1215.32 212.957 1214.22 213.192 1213.03 213.192C1210.77 213.192 1208.99 212.573 1207.69 211.336C1206.38 210.077 1205.73 208.232 1205.73 205.8V196.04H1208.81V205.448C1208.81 207.091 1209.2 208.339 1209.99 209.192C1210.78 210.024 1211.91 210.44 1213.38 210.44C1215 210.44 1216.28 209.949 1217.22 208.968C1218.16 207.987 1218.63 206.6 1218.63 204.808V196.04H1221.7ZM1233.95 189.256H1237.02V213H1233.95V189.256ZM1249.29 189.256H1252.36V213H1249.29V189.256ZM1269.49 213.192C1268.1 213.192 1266.77 213.011 1265.49 212.648C1264.21 212.264 1263.21 211.784 1262.48 211.208L1263.76 208.776C1264.51 209.309 1265.41 209.736 1266.48 210.056C1267.55 210.376 1268.62 210.536 1269.71 210.536C1272.4 210.536 1273.74 209.768 1273.74 208.232C1273.74 207.72 1273.56 207.315 1273.2 207.016C1272.84 206.717 1272.38 206.504 1271.82 206.376C1271.29 206.227 1270.52 206.067 1269.52 205.896C1268.16 205.683 1267.04 205.437 1266.16 205.16C1265.31 204.883 1264.57 204.413 1263.95 203.752C1263.33 203.091 1263.02 202.163 1263.02 200.968C1263.02 199.432 1263.66 198.205 1264.94 197.288C1266.22 196.349 1267.94 195.88 1270.1 195.88C1271.23 195.88 1272.36 196.019 1273.49 196.296C1274.62 196.573 1275.55 196.947 1276.27 197.416L1274.96 199.848C1273.57 198.952 1271.94 198.504 1270.06 198.504C1268.76 198.504 1267.77 198.717 1267.09 199.144C1266.41 199.571 1266.06 200.136 1266.06 200.84C1266.06 201.395 1266.26 201.832 1266.64 202.152C1267.02 202.472 1267.49 202.707 1268.05 202.856C1268.62 203.005 1269.42 203.176 1270.45 203.368C1271.81 203.603 1272.91 203.859 1273.74 204.136C1274.6 204.392 1275.32 204.84 1275.92 205.48C1276.52 206.12 1276.82 207.016 1276.82 208.168C1276.82 209.704 1276.16 210.931 1274.83 211.848C1273.53 212.744 1271.75 213.192 1269.49 213.192ZM1296.59 212.008C1296.14 212.392 1295.59 212.691 1294.93 212.904C1294.27 213.096 1293.58 213.192 1292.88 213.192C1291.17 213.192 1289.85 212.733 1288.91 211.816C1287.97 210.899 1287.5 209.587 1287.5 207.88V198.568H1284.62V196.04H1287.5V192.328H1290.58V196.04H1295.44V198.568H1290.58V207.752C1290.58 208.669 1290.8 209.373 1291.25 209.864C1291.72 210.355 1292.38 210.6 1293.23 210.6C1294.17 210.6 1294.97 210.333 1295.63 209.8L1296.59 212.008ZM1312.88 195.88C1315.23 195.88 1317.02 196.456 1318.26 197.608C1319.52 198.76 1320.15 200.477 1320.15 202.76V213H1317.23V210.76C1316.72 211.549 1315.99 212.157 1315.03 212.584C1314.09 212.989 1312.97 213.192 1311.67 213.192C1309.77 213.192 1308.24 212.733 1307.09 211.816C1305.96 210.899 1305.39 209.693 1305.39 208.2C1305.39 206.707 1305.94 205.512 1307.03 204.616C1308.11 203.699 1309.84 203.24 1312.21 203.24H1317.07V202.632C1317.07 201.309 1316.69 200.296 1315.92 199.592C1315.15 198.888 1314.02 198.536 1312.53 198.536C1311.53 198.536 1310.55 198.707 1309.59 199.048C1308.63 199.368 1307.82 199.805 1307.15 200.36L1305.87 198.056C1306.75 197.352 1307.79 196.819 1309.01 196.456C1310.23 196.072 1311.52 195.88 1312.88 195.88ZM1312.18 210.824C1313.35 210.824 1314.36 210.568 1315.22 210.056C1316.07 209.523 1316.69 208.776 1317.07 207.816V205.448H1312.34C1309.74 205.448 1308.43 206.323 1308.43 208.072C1308.43 208.925 1308.76 209.597 1309.43 210.088C1310.09 210.579 1311 210.824 1312.18 210.824ZM1339.72 213.192C1337.99 213.192 1336.44 212.819 1335.08 212.072C1333.73 211.325 1332.68 210.301 1331.91 209C1331.14 207.677 1330.76 206.184 1330.76 204.52C1330.76 202.856 1331.14 201.373 1331.91 200.072C1332.68 198.749 1333.73 197.725 1335.08 197C1336.44 196.253 1337.99 195.88 1339.72 195.88C1341.25 195.88 1342.62 196.189 1343.81 196.808C1345.03 197.427 1345.97 198.323 1346.63 199.496L1344.29 201C1343.76 200.189 1343.1 199.581 1342.31 199.176C1341.52 198.771 1340.64 198.568 1339.68 198.568C1338.58 198.568 1337.57 198.813 1336.68 199.304C1335.8 199.795 1335.11 200.499 1334.6 201.416C1334.11 202.312 1333.86 203.347 1333.86 204.52C1333.86 205.715 1334.11 206.771 1334.6 207.688C1335.11 208.584 1335.8 209.277 1336.68 209.768C1337.57 210.259 1338.58 210.504 1339.68 210.504C1340.64 210.504 1341.52 210.301 1342.31 209.896C1343.1 209.491 1343.76 208.883 1344.29 208.072L1346.63 209.544C1345.97 210.717 1345.03 211.624 1343.81 212.264C1342.62 212.883 1341.25 213.192 1339.72 213.192ZM1363.38 205.096L1359.86 208.36V213H1356.79V189.256H1359.86V204.488L1369.11 196.04H1372.82L1365.68 203.048L1373.52 213H1369.75L1363.38 205.096ZM1413.9 189.256V213H1410.96V210.312C1410.27 211.251 1409.41 211.965 1408.36 212.456C1407.32 212.947 1406.17 213.192 1404.91 213.192C1403.26 213.192 1401.79 212.829 1400.49 212.104C1399.19 211.379 1398.17 210.365 1397.42 209.064C1396.69 207.741 1396.33 206.227 1396.33 204.52C1396.33 202.813 1396.69 201.309 1397.42 200.008C1398.17 198.707 1399.19 197.693 1400.49 196.968C1401.79 196.243 1403.26 195.88 1404.91 195.88C1406.12 195.88 1407.24 196.115 1408.27 196.584C1409.29 197.032 1410.14 197.704 1410.83 198.6V189.256H1413.9ZM1405.16 210.504C1406.23 210.504 1407.2 210.259 1408.08 209.768C1408.95 209.256 1409.63 208.552 1410.12 207.656C1410.61 206.739 1410.86 205.693 1410.86 204.52C1410.86 203.347 1410.61 202.312 1410.12 201.416C1409.63 200.499 1408.95 199.795 1408.08 199.304C1407.2 198.813 1406.23 198.568 1405.16 198.568C1404.08 198.568 1403.09 198.813 1402.22 199.304C1401.37 199.795 1400.68 200.499 1400.17 201.416C1399.68 202.312 1399.44 203.347 1399.44 204.52C1399.44 205.693 1399.68 206.739 1400.17 207.656C1400.68 208.552 1401.37 209.256 1402.22 209.768C1403.09 210.259 1404.08 210.504 1405.16 210.504ZM1441.44 204.616C1441.44 204.851 1441.42 205.16 1441.38 205.544H1427.62C1427.81 207.037 1428.46 208.243 1429.57 209.16C1430.7 210.056 1432.1 210.504 1433.76 210.504C1435.79 210.504 1437.42 209.821 1438.66 208.456L1440.35 210.44C1439.58 211.336 1438.62 212.019 1437.47 212.488C1436.34 212.957 1435.07 213.192 1433.66 213.192C1431.87 213.192 1430.28 212.829 1428.9 212.104C1427.51 211.357 1426.43 210.323 1425.66 209C1424.92 207.677 1424.54 206.184 1424.54 204.52C1424.54 202.877 1424.91 201.395 1425.63 200.072C1426.38 198.749 1427.39 197.725 1428.67 197C1429.97 196.253 1431.43 195.88 1433.06 195.88C1434.68 195.88 1436.12 196.253 1437.38 197C1438.66 197.725 1439.65 198.749 1440.35 200.072C1441.08 201.395 1441.44 202.909 1441.44 204.616ZM1433.06 198.472C1431.58 198.472 1430.35 198.92 1429.34 199.816C1428.36 200.712 1427.79 201.885 1427.62 203.336H1438.5C1438.33 201.907 1437.74 200.744 1436.74 199.848C1435.75 198.931 1434.53 198.472 1433.06 198.472ZM1466.8 196.04L1459.38 213H1456.24L1448.82 196.04H1452.02L1457.84 209.64L1463.79 196.04H1466.8ZM1490.93 204.616C1490.93 204.851 1490.91 205.16 1490.86 205.544H1477.1C1477.3 207.037 1477.95 208.243 1479.06 209.16C1480.19 210.056 1481.58 210.504 1483.25 210.504C1485.27 210.504 1486.91 209.821 1488.14 208.456L1489.84 210.44C1489.07 211.336 1488.11 212.019 1486.96 212.488C1485.83 212.957 1484.56 213.192 1483.15 213.192C1481.36 213.192 1479.77 212.829 1478.38 212.104C1477 211.357 1475.92 210.323 1475.15 209C1474.4 207.677 1474.03 206.184 1474.03 204.52C1474.03 202.877 1474.39 201.395 1475.12 200.072C1475.87 198.749 1476.88 197.725 1478.16 197C1479.46 196.253 1480.92 195.88 1482.54 195.88C1484.16 195.88 1485.6 196.253 1486.86 197C1488.14 197.725 1489.14 198.749 1489.84 200.072C1490.56 201.395 1490.93 202.909 1490.93 204.616ZM1482.54 198.472C1481.07 198.472 1479.83 198.92 1478.83 199.816C1477.85 200.712 1477.27 201.885 1477.1 203.336H1487.98C1487.81 201.907 1487.23 200.744 1486.22 199.848C1485.24 198.931 1484.02 198.472 1482.54 198.472ZM1501.59 189.256H1504.67V213H1501.59V189.256ZM1524.19 213.192C1522.51 213.192 1520.99 212.819 1519.65 212.072C1518.31 211.325 1517.25 210.301 1516.48 209C1515.74 207.677 1515.36 206.184 1515.36 204.52C1515.36 202.856 1515.74 201.373 1516.48 200.072C1517.25 198.749 1518.31 197.725 1519.65 197C1520.99 196.253 1522.51 195.88 1524.19 195.88C1525.88 195.88 1527.38 196.253 1528.71 197C1530.05 197.725 1531.1 198.749 1531.84 200.072C1532.61 201.373 1532.99 202.856 1532.99 204.52C1532.99 206.184 1532.61 207.677 1531.84 209C1531.1 210.301 1530.05 211.325 1528.71 212.072C1527.38 212.819 1525.88 213.192 1524.19 213.192ZM1524.19 210.504C1525.28 210.504 1526.25 210.259 1527.11 209.768C1527.98 209.256 1528.66 208.552 1529.15 207.656C1529.65 206.739 1529.89 205.693 1529.89 204.52C1529.89 203.347 1529.65 202.312 1529.15 201.416C1528.66 200.499 1527.98 199.795 1527.11 199.304C1526.25 198.813 1525.28 198.568 1524.19 198.568C1523.11 198.568 1522.13 198.813 1521.25 199.304C1520.4 199.795 1519.71 200.499 1519.2 201.416C1518.71 202.312 1518.47 203.347 1518.47 204.52C1518.47 205.693 1518.71 206.739 1519.2 207.656C1519.71 208.552 1520.4 209.256 1521.25 209.768C1522.13 210.259 1523.11 210.504 1524.19 210.504ZM1552.64 195.88C1554.28 195.88 1555.75 196.243 1557.05 196.968C1558.35 197.693 1559.37 198.707 1560.09 200.008C1560.84 201.309 1561.21 202.813 1561.21 204.52C1561.21 206.227 1560.84 207.741 1560.09 209.064C1559.37 210.365 1558.35 211.379 1557.05 212.104C1555.75 212.829 1554.28 213.192 1552.64 213.192C1551.42 213.192 1550.3 212.957 1549.28 212.488C1548.27 212.019 1547.42 211.336 1546.72 210.44V219.208H1543.64V196.04H1546.59V198.728C1547.27 197.789 1548.13 197.085 1549.18 196.616C1550.22 196.125 1551.38 195.88 1552.64 195.88ZM1552.38 210.504C1553.47 210.504 1554.44 210.259 1555.29 209.768C1556.17 209.256 1556.85 208.552 1557.34 207.656C1557.85 206.739 1558.11 205.693 1558.11 204.52C1558.11 203.347 1557.85 202.312 1557.34 201.416C1556.85 200.499 1556.17 199.795 1555.29 199.304C1554.44 198.813 1553.47 198.568 1552.38 198.568C1551.31 198.568 1550.34 198.824 1549.47 199.336C1548.61 199.827 1547.93 200.52 1547.42 201.416C1546.93 202.312 1546.68 203.347 1546.68 204.52C1546.68 205.693 1546.93 206.739 1547.42 207.656C1547.91 208.552 1548.59 209.256 1549.47 209.768C1550.34 210.259 1551.31 210.504 1552.38 210.504ZM1587.18 204.616C1587.18 204.851 1587.16 205.16 1587.12 205.544H1573.36C1573.55 207.037 1574.2 208.243 1575.31 209.16C1576.44 210.056 1577.84 210.504 1579.5 210.504C1581.53 210.504 1583.16 209.821 1584.4 208.456L1586.1 210.44C1585.33 211.336 1584.37 212.019 1583.22 212.488C1582.09 212.957 1580.82 213.192 1579.41 213.192C1577.62 213.192 1576.03 212.829 1574.64 212.104C1573.25 211.357 1572.18 210.323 1571.41 209C1570.66 207.677 1570.29 206.184 1570.29 204.52C1570.29 202.877 1570.65 201.395 1571.38 200.072C1572.12 198.749 1573.14 197.725 1574.42 197C1575.72 196.253 1577.18 195.88 1578.8 195.88C1580.42 195.88 1581.86 196.253 1583.12 197C1584.4 197.725 1585.39 198.749 1586.1 200.072C1586.82 201.395 1587.18 202.909 1587.18 204.616ZM1578.8 198.472C1577.33 198.472 1576.09 198.92 1575.09 199.816C1574.11 200.712 1573.53 201.885 1573.36 203.336H1584.24C1584.07 201.907 1583.48 200.744 1582.48 199.848C1581.5 198.931 1580.27 198.472 1578.8 198.472ZM1600.79 198.888C1601.33 197.907 1602.12 197.16 1603.16 196.648C1604.21 196.136 1605.48 195.88 1606.97 195.88V198.856C1606.8 198.835 1606.56 198.824 1606.27 198.824C1604.6 198.824 1603.29 199.325 1602.33 200.328C1601.39 201.309 1600.92 202.717 1600.92 204.552V213H1597.85V196.04H1600.79V198.888Z" fill="white"/>
</svg>
