<svg width="2000" height="500" viewBox="0 0 2000 500" fill="none" xmlns="http://www.w3.org/2000/svg">
<rect width="2000" height="201" fill="#CFF5EA"/>
<ellipse rx="14.2167" ry="12.5864" transform="matrix(0.926605 0.376036 -0.853733 0.520711 1915 474.627)" fill="#CFF5EA"/>
<ellipse rx="2.56745" ry="2.27303" transform="matrix(0.926605 0.376036 -0.853733 0.52071 1961.32 492.199)" fill="#CFF5EA"/>
<ellipse rx="2.56745" ry="2.27303" transform="matrix(0.926605 0.376036 -0.853733 0.52071 1966.32 476.776)" fill="#CFF5EA"/>
<ellipse rx="2.56745" ry="2.27303" transform="matrix(0.926605 0.376036 -0.853733 0.52071 1952.32 466.826)" fill="#CFF5EA"/>
<ellipse rx="2.56745" ry="2.27303" transform="matrix(0.926605 0.376036 -0.853733 0.52071 1926.32 446.925)" fill="#CFF5EA"/>
<ellipse rx="2.56745" ry="2.27303" transform="matrix(0.926605 0.376036 -0.853733 0.52071 1961.32 492.199)" fill="#CFF5EA"/>
<ellipse rx="2.56745" ry="2.27303" transform="matrix(0.926605 0.376036 -0.853733 0.52071 1966.32 476.776)" fill="#CFF5EA"/>
<ellipse rx="2.56745" ry="2.27303" transform="matrix(0.926605 0.376036 -0.853733 0.52071 1952.32 466.826)" fill="#CFF5EA"/>
<ellipse rx="2.56745" ry="2.27303" transform="matrix(0.926605 0.376036 -0.853733 0.52071 1926.32 446.925)" fill="#CFF5EA"/>
<ellipse rx="2.56745" ry="2.27303" transform="matrix(0.926605 0.376036 -0.853733 0.52071 1961.32 492.199)" fill="#CFF5EA"/>
<ellipse rx="2.56745" ry="2.27303" transform="matrix(0.926605 0.376036 -0.853733 0.52071 1966.32 476.776)" fill="#CFF5EA"/>
<ellipse rx="2.56745" ry="2.27303" transform="matrix(0.926605 0.376036 -0.853733 0.52071 1952.32 466.826)" fill="#CFF5EA"/>
<ellipse rx="2.56745" ry="2.27303" transform="matrix(0.926605 0.376036 -0.853733 0.52071 1926.32 446.925)" fill="#CFF5EA"/>
<ellipse rx="2.56745" ry="2.27303" transform="matrix(0.926605 0.376036 -0.853733 0.52071 1961.32 492.199)" fill="#CFF5EA"/>
<ellipse rx="2.56745" ry="2.27303" transform="matrix(0.926605 0.376036 -0.853733 0.52071 1966.32 476.776)" fill="#CFF5EA"/>
<ellipse rx="2.56745" ry="2.27303" transform="matrix(0.926605 0.376036 -0.853733 0.52071 1952.32 466.826)" fill="#CFF5EA"/>
<ellipse rx="2.56745" ry="2.27303" transform="matrix(0.926605 0.376036 -0.853733 0.52071 1926.32 446.925)" fill="#CFF5EA"/>
<ellipse rx="2.56745" ry="2.27303" transform="matrix(0.926605 0.376036 -0.853733 0.52071 1818.32 404.139)" fill="white"/>
<ellipse rx="2.56745" ry="2.27303" transform="matrix(0.926605 0.376036 -0.853733 0.52071 1822.32 357.87)" fill="white"/>
<ellipse rx="2.56745" ry="2.27302" transform="matrix(0.926607 0.376032 -0.853737 0.520705 1882.32 343.94)" fill="white"/>
<ellipse rx="2.56745" ry="2.27303" transform="matrix(0.926605 0.376036 -0.853733 0.52071 1915.32 304.637)" fill="white"/>
<ellipse rx="2.56745" ry="2.27303" transform="matrix(0.926605 0.376036 -0.853733 0.52071 1802.32 273.293)" fill="white"/>
<ellipse rx="2.56745" ry="2.27303" transform="matrix(0.926605 0.376036 -0.853733 0.52071 1947.32 496.676)" fill="#CFF5EA"/>
<ellipse rx="2.56745" ry="2.27302" transform="matrix(0.926607 0.376032 -0.853737 0.520705 1954.32 453.89)" fill="#CFF5EA"/>
<ellipse rx="2.56745" ry="2.27303" transform="matrix(0.926605 0.376036 -0.853733 0.52071 1966.32 439.96)" fill="#CFF5EA"/>
<ellipse rx="2.56745" ry="2.27303" transform="matrix(0.926605 0.376036 -0.853733 0.52071 1882.32 421.055)" fill="#CFF5EA"/>
<ellipse rx="2.56745" ry="2.27303" transform="matrix(0.926605 0.376036 -0.853733 0.52071 1910.32 382.746)" fill="#CFF5EA"/>
<ellipse rx="2.56745" ry="2.27303" transform="matrix(0.926606 0.376034 -0.853735 0.520708 1966.32 334.487)" fill="#CFF5EA"/>
<ellipse rx="2.56745" ry="2.27303" transform="matrix(0.926605 0.376036 -0.853733 0.52071 1957.32 289.214)" fill="#CFF5EA"/>
<ellipse rx="2.56746" ry="2.27303" transform="matrix(0.926605 0.376037 -0.853733 0.520712 1794.32 217.572)" fill="#CFF5EA"/>
<ellipse rx="2.56745" ry="2.27303" transform="matrix(0.926605 0.376036 -0.853733 0.52071 1890.32 266.826)" fill="#CFF5EA"/>
<ellipse rx="2.56745" ry="2.27303" transform="matrix(0.926605 0.376036 -0.853733 0.52071 1966.32 394.686)" fill="#CFF5EA"/>
<ellipse rx="2.56745" ry="2.27303" transform="matrix(0.926605 0.376036 -0.853733 0.52071 1785.32 357.87)" fill="#CFF5EA"/>
<ellipse cx="1873.5" cy="465.423" rx="7.5" ry="3.73135" fill="#CFF5EA"/>
<ellipse cx="1848.5" cy="434.08" rx="7.5" ry="3.73135" fill="#CFF5EA"/>
<ellipse cx="1873.5" cy="496.269" rx="7.5" ry="3.73134" fill="#CFF5EA"/>
<ellipse cx="1894.5" cy="359.453" rx="7.5" ry="3.73135" fill="#CFF5EA"/>
<ellipse cx="1894.5" cy="450.497" rx="7.5" ry="3.73134" fill="#CFF5EA"/>
<ellipse cx="1938.5" cy="430.099" rx="7.5" ry="3.73137" fill="#CFF5EA"/>
<ellipse cx="1931.5" cy="414.179" rx="7.5" ry="3.73135" fill="#CFF5EA"/>
<ellipse cx="1946.5" cy="373.881" rx="7.5" ry="3.73134" fill="#CFF5EA"/>
<ellipse cx="1939.5" cy="351.99" rx="7.5" ry="3.73134" fill="#CFF5EA"/>
<ellipse cx="1915.5" cy="327.114" rx="7.5" ry="3.73134" fill="#CFF5EA"/>
<ellipse cx="1773.5" cy="286.816" rx="7.5" ry="3.73134" fill="#CFF5EA"/>
<ellipse cx="1873.5" cy="308.706" rx="7.5" ry="3.73134" fill="#CFF5EA"/>
<ellipse cx="1843.5" cy="204.726" rx="7.5" ry="3.73134" fill="#CFF5EA"/>
<ellipse cx="1915" cy="410.448" rx="17" ry="8.4577" fill="#CFF5EA"/>
<ellipse cx="1854" cy="378.607" rx="17" ry="8.4577" fill="#CFF5EA"/>
<ellipse cx="1843.5" cy="301.244" rx="7.5" ry="3.73134" fill="white"/>
<ellipse cx="1963.5" cy="236.567" rx="7.5" ry="3.73135" fill="white"/>
<ellipse cx="1940.5" cy="149.005" rx="7.5" ry="3.73135" fill="white"/>
<ellipse cx="1764.5" cy="141.542" rx="7.5" ry="3.73134" fill="white"/>
<ellipse cx="1932.5" cy="201.244" rx="7.5" ry="3.73135" fill="white"/>
<ellipse cx="1896.5" cy="123.134" rx="7.5" ry="3.73134" fill="white"/>
<ellipse cx="1978.5" cy="11.6915" rx="7.5" ry="3.73134" fill="white"/>
<ellipse cx="1771.5" cy="19.1542" rx="7.5" ry="3.73134" fill="white"/>
<ellipse cx="1940" cy="264.677" rx="22" ry="10.9453" fill="#CFF5EA"/>
<ellipse cx="1764" cy="236.816" rx="22" ry="10.9453" fill="white"/>
<ellipse cx="1766" cy="190.05" rx="22" ry="10.9453" fill="white"/>
<ellipse cx="1874" cy="237.313" rx="22" ry="10.9453" fill="white"/>
<ellipse cx="1859" cy="74.1294" rx="22" ry="10.9453" fill="white"/>
<ellipse cx="1944" cy="65.6717" rx="22" ry="10.9453" fill="white"/>
<ellipse cx="1829" cy="151.741" rx="22" ry="10.9453" fill="white"/>
<ellipse cx="1829" cy="253.234" rx="22" ry="10.9453" fill="#CFF5EA"/>
<ellipse cx="1893" cy="211.94" rx="22" ry="10.9453" fill="#CFF5EA"/>
<ellipse cx="1939" cy="169.652" rx="22" ry="10.9453" fill="#CFF5EA"/>
<ellipse cx="1786.5" cy="169.901" rx="42.5" ry="21.1443" fill="#CFF5EA"/>
<ellipse cx="1806.5" cy="184.328" rx="7.5" ry="3.73135" fill="white"/>
<ellipse cx="1880.5" cy="208.706" rx="7.5" ry="3.73134" fill="white"/>
<ellipse cx="1922.5" cy="257.463" rx="7.5" ry="3.73135" fill="white"/>
<ellipse cx="1978.5" cy="119.652" rx="7.5" ry="3.73134" fill="white"/>
<ellipse cx="1844.5" cy="297.264" rx="7.5" ry="3.73134" fill="white"/>
<ellipse cx="1960.5" cy="323.632" rx="7.5" ry="3.73135" fill="white"/>
<ellipse cx="1955.5" cy="221.144" rx="7.5" ry="3.73135" fill="white"/>
<ellipse cx="1872.5" cy="169.901" rx="7.5" ry="3.73135" fill="white"/>
<path d="M542.64 56V84H537.44V72H522.96V84H517.76V56H522.96V67.56H537.44V56H542.64ZM557.663 62.64H562.663V84H557.663V62.64ZM560.183 59.12C559.276 59.12 558.516 58.84 557.903 58.28C557.289 57.6933 556.983 56.9733 556.983 56.12C556.983 55.2667 557.289 54.56 557.903 54C558.516 53.4133 559.276 53.12 560.183 53.12C561.089 53.12 561.849 53.4 562.463 53.96C563.076 54.4933 563.383 55.1733 563.383 56C563.383 56.88 563.076 57.6267 562.463 58.24C561.876 58.8267 561.116 59.12 560.183 59.12ZM578.865 77.64C579.799 77.64 580.572 77.9467 581.185 78.56C581.799 79.1733 582.105 79.9733 582.105 80.96C582.105 81.3867 582.039 81.84 581.905 82.32C581.799 82.7733 581.559 83.4667 581.185 84.4L579.145 90.04H575.905L577.505 83.92C576.919 83.68 576.452 83.3067 576.105 82.8C575.785 82.2667 575.625 81.6533 575.625 80.96C575.625 79.9733 575.932 79.1733 576.545 78.56C577.159 77.9467 577.932 77.64 578.865 77.64ZM614.526 56H619.726V84H614.526V56ZM636.459 54.04C637.392 54.04 638.166 54.3467 638.779 54.96C639.392 55.5733 639.699 56.36 639.699 57.32C639.699 57.8 639.632 58.2667 639.499 58.72C639.392 59.1733 639.166 59.8533 638.819 60.76L636.739 66.44H633.499L635.099 60.28C634.512 60.0667 634.046 59.7067 633.699 59.2C633.379 58.6667 633.219 58.04 633.219 57.32C633.219 56.36 633.526 55.5733 634.139 54.96C634.752 54.3467 635.526 54.04 636.459 54.04ZM679.545 62.4C682.238 62.4 684.371 63.1867 685.945 64.76C687.518 66.3067 688.305 68.64 688.305 71.76V84H683.305V72.4C683.305 70.5333 682.891 69.1333 682.065 68.2C681.238 67.24 680.051 66.76 678.505 66.76C676.825 66.76 675.478 67.32 674.465 68.44C673.451 69.5333 672.945 71.1067 672.945 73.16V84H667.945V72.4C667.945 70.5333 667.531 69.1333 666.705 68.2C665.878 67.24 664.691 66.76 663.145 66.76C661.438 66.76 660.078 67.3067 659.065 68.4C658.078 69.4933 657.585 71.08 657.585 73.16V84H652.585V62.64H657.345V65.36C658.145 64.4 659.145 63.6667 660.345 63.16C661.545 62.6533 662.878 62.4 664.345 62.4C665.945 62.4 667.358 62.7067 668.585 63.32C669.838 63.9067 670.825 64.7867 671.545 65.96C672.425 64.84 673.558 63.9733 674.945 63.36C676.331 62.72 677.865 62.4 679.545 62.4ZM733.749 56C736.175 56 738.282 56.4 740.069 57.2C741.882 58 743.269 59.1467 744.229 60.64C745.189 62.1333 745.669 63.9067 745.669 65.96C745.669 67.9867 745.189 69.76 744.229 71.28C743.269 72.7733 741.882 73.92 740.069 74.72C738.282 75.52 736.175 75.92 733.749 75.92H727.429V84H722.229V56H733.749ZM733.509 71.52C735.775 71.52 737.495 71.04 738.669 70.08C739.842 69.12 740.429 67.7467 740.429 65.96C740.429 64.1733 739.842 62.8 738.669 61.84C737.495 60.88 735.775 60.4 733.509 60.4H727.429V71.52H733.509ZM778.383 73.44C778.383 73.7867 778.357 74.28 778.303 74.92H761.543C761.837 76.4933 762.597 77.7467 763.823 78.68C765.077 79.5867 766.623 80.04 768.463 80.04C770.81 80.04 772.743 79.2667 774.263 77.72L776.943 80.8C775.983 81.9467 774.77 82.8133 773.303 83.4C771.837 83.9867 770.183 84.28 768.343 84.28C765.997 84.28 763.93 83.8133 762.143 82.88C760.357 81.9467 758.97 80.6533 757.983 79C757.023 77.32 756.543 75.4267 756.543 73.32C756.543 71.24 757.01 69.3733 757.943 67.72C758.903 66.04 760.223 64.7333 761.903 63.8C763.583 62.8667 765.477 62.4 767.583 62.4C769.663 62.4 771.517 62.8667 773.143 63.8C774.797 64.7067 776.077 66 776.983 67.68C777.917 69.3333 778.383 71.2533 778.383 73.44ZM767.583 66.4C765.983 66.4 764.623 66.88 763.503 67.84C762.41 68.7733 761.743 70.0267 761.503 71.6H773.623C773.41 70.0533 772.757 68.8 771.663 67.84C770.57 66.88 769.21 66.4 767.583 66.4ZM804.026 82.84C803.44 83.32 802.72 83.68 801.866 83.92C801.04 84.16 800.16 84.28 799.226 84.28C796.88 84.28 795.066 83.6667 793.786 82.44C792.506 81.2133 791.866 79.4267 791.866 77.08V66.8H788.346V62.8H791.866V57.92H796.866V62.8H802.586V66.8H796.866V76.96C796.866 78 797.12 78.8 797.626 79.36C798.133 79.8933 798.866 80.16 799.826 80.16C800.946 80.16 801.88 79.8667 802.626 79.28L804.026 82.84ZM835.516 73.44C835.516 73.7867 835.49 74.28 835.436 74.92H818.676C818.97 76.4933 819.73 77.7467 820.956 78.68C822.21 79.5867 823.756 80.04 825.596 80.04C827.943 80.04 829.876 79.2667 831.396 77.72L834.076 80.8C833.116 81.9467 831.903 82.8133 830.436 83.4C828.97 83.9867 827.316 84.28 825.476 84.28C823.13 84.28 821.063 83.8133 819.276 82.88C817.49 81.9467 816.103 80.6533 815.116 79C814.156 77.32 813.676 75.4267 813.676 73.32C813.676 71.24 814.143 69.3733 815.076 67.72C816.036 66.04 817.356 64.7333 819.036 63.8C820.716 62.8667 822.61 62.4 824.716 62.4C826.796 62.4 828.65 62.8667 830.276 63.8C831.93 64.7067 833.21 66 834.116 67.68C835.05 69.3333 835.516 71.2533 835.516 73.44ZM824.716 66.4C823.116 66.4 821.756 66.88 820.636 67.84C819.543 68.7733 818.876 70.0267 818.636 71.6H830.756C830.543 70.0533 829.89 68.8 828.796 67.84C827.703 66.88 826.343 66.4 824.716 66.4ZM853.079 65.76C854.519 63.52 857.052 62.4 860.679 62.4V67.16C860.252 67.08 859.866 67.04 859.519 67.04C857.572 67.04 856.052 67.6133 854.959 68.76C853.866 69.88 853.319 71.5067 853.319 73.64V84H848.319V62.64H853.079V65.76ZM897.011 84.4C895.224 84.4 893.571 84.0533 892.051 83.36C890.557 82.64 889.331 81.64 888.371 80.36L891.331 76.8C892.877 78.9333 894.731 80 896.891 80C899.797 80 901.251 78.28 901.251 74.84V60.36H891.291V56H906.451V74.56C906.451 77.84 905.651 80.3067 904.051 81.96C902.451 83.5867 900.104 84.4 897.011 84.4ZM929.424 62.4C932.571 62.4 934.971 63.16 936.624 64.68C938.304 66.1733 939.144 68.44 939.144 71.48V84H934.424V81.4C933.811 82.3333 932.931 83.0533 931.784 83.56C930.664 84.04 929.304 84.28 927.704 84.28C926.104 84.28 924.704 84.0133 923.504 83.48C922.304 82.92 921.371 82.16 920.704 81.2C920.064 80.2133 919.744 79.1067 919.744 77.88C919.744 75.96 920.451 74.4267 921.864 73.28C923.304 72.1067 925.558 71.52 928.624 71.52H934.144V71.2C934.144 69.7067 933.691 68.56 932.784 67.76C931.904 66.96 930.584 66.56 928.824 66.56C927.624 66.56 926.438 66.7467 925.264 67.12C924.118 67.4933 923.144 68.0133 922.344 68.68L920.384 65.04C921.504 64.1867 922.851 63.5333 924.424 63.08C925.998 62.6267 927.664 62.4 929.424 62.4ZM928.744 80.64C929.998 80.64 931.104 80.36 932.064 79.8C933.051 79.2133 933.744 78.3867 934.144 77.32V74.84H928.984C926.104 74.84 924.664 75.7867 924.664 77.68C924.664 78.5867 925.024 79.3067 925.744 79.84C926.464 80.3733 927.464 80.64 928.744 80.64ZM965.681 62.4C968.375 62.4 970.535 63.1867 972.161 64.76C973.788 66.3333 974.601 68.6667 974.601 71.76V84H969.601V72.4C969.601 70.5333 969.161 69.1333 968.281 68.2C967.401 67.24 966.148 66.76 964.521 66.76C962.681 66.76 961.228 67.32 960.161 68.44C959.095 69.5333 958.561 71.12 958.561 73.2V84H953.561V62.64H958.321V65.4C959.148 64.4133 960.188 63.6667 961.441 63.16C962.695 62.6533 964.108 62.4 965.681 62.4ZM988.944 62.64H993.944V84H988.944V62.64ZM991.464 59.12C990.557 59.12 989.797 58.84 989.184 58.28C988.571 57.6933 988.264 56.9733 988.264 56.12C988.264 55.2667 988.571 54.56 989.184 54C989.797 53.4133 990.557 53.12 991.464 53.12C992.371 53.12 993.131 53.4 993.744 53.96C994.357 54.4933 994.664 55.1733 994.664 56C994.664 56.88 994.357 57.6267 993.744 58.24C993.157 58.8267 992.397 59.12 991.464 59.12ZM1015.11 84.28C1013.37 84.28 1011.68 84.0533 1010.03 83.6C1008.37 83.1467 1007.05 82.5733 1006.07 81.88L1007.99 78.08C1008.95 78.72 1010.09 79.24 1011.43 79.64C1012.79 80.0133 1014.12 80.2 1015.43 80.2C1018.41 80.2 1019.91 79.4133 1019.91 77.84C1019.91 77.0933 1019.52 76.5733 1018.75 76.28C1018 75.9867 1016.79 75.7067 1015.11 75.44C1013.35 75.1733 1011.91 74.8667 1010.79 74.52C1009.69 74.1733 1008.73 73.5733 1007.91 72.72C1007.11 71.84 1006.71 70.6267 1006.71 69.08C1006.71 67.0533 1007.55 65.44 1009.23 64.24C1010.93 63.0133 1013.23 62.4 1016.11 62.4C1017.57 62.4 1019.04 62.5733 1020.51 62.92C1021.97 63.24 1023.17 63.68 1024.11 64.24L1022.19 68.04C1020.37 66.9733 1018.33 66.44 1016.07 66.44C1014.6 66.44 1013.48 66.6667 1012.71 67.12C1011.96 67.5467 1011.59 68.12 1011.59 68.84C1011.59 69.64 1011.99 70.2133 1012.79 70.56C1013.61 70.88 1014.88 71.1867 1016.59 71.48C1018.29 71.7467 1019.69 72.0533 1020.79 72.4C1021.88 72.7467 1022.81 73.3333 1023.59 74.16C1024.39 74.9867 1024.79 76.16 1024.79 77.68C1024.79 79.68 1023.92 81.28 1022.19 82.48C1020.45 83.68 1018.09 84.28 1015.11 84.28ZM1053.77 80V84H1035.33V80.84L1047.05 66.64H1035.57V62.64H1053.45V65.8L1041.69 80H1053.77ZM1086.15 73.44C1086.15 73.7867 1086.12 74.28 1086.07 74.92H1069.31C1069.6 76.4933 1070.36 77.7467 1071.59 78.68C1072.84 79.5867 1074.39 80.04 1076.23 80.04C1078.58 80.04 1080.51 79.2667 1082.03 77.72L1084.71 80.8C1083.75 81.9467 1082.54 82.8133 1081.07 83.4C1079.6 83.9867 1077.95 84.28 1076.11 84.28C1073.76 84.28 1071.7 83.8133 1069.91 82.88C1068.12 81.9467 1066.74 80.6533 1065.75 79C1064.79 77.32 1064.31 75.4267 1064.31 73.32C1064.31 71.24 1064.78 69.3733 1065.71 67.72C1066.67 66.04 1067.99 64.7333 1069.67 63.8C1071.35 62.8667 1073.24 62.4 1075.35 62.4C1077.43 62.4 1079.28 62.8667 1080.91 63.8C1082.56 64.7067 1083.84 66 1084.75 67.68C1085.68 69.3333 1086.15 71.2533 1086.15 73.44ZM1075.35 66.4C1073.75 66.4 1072.39 66.88 1071.27 67.84C1070.18 68.7733 1069.51 70.0267 1069.27 71.6H1081.39C1081.18 70.0533 1080.52 68.8 1079.43 67.84C1078.34 66.88 1076.98 66.4 1075.35 66.4ZM1131.88 62.64L1124 84H1119.2L1113.68 69.28L1108.08 84H1103.28L1095.44 62.64H1100.16L1105.8 78.4L1111.68 62.64H1115.88L1121.64 78.48L1127.44 62.64H1131.88ZM1149.65 84.28C1147.91 84.28 1146.22 84.0533 1144.57 83.6C1142.91 83.1467 1141.59 82.5733 1140.61 81.88L1142.53 78.08C1143.49 78.72 1144.63 79.24 1145.97 79.64C1147.33 80.0133 1148.66 80.2 1149.97 80.2C1152.95 80.2 1154.45 79.4133 1154.45 77.84C1154.45 77.0933 1154.06 76.5733 1153.29 76.28C1152.54 75.9867 1151.33 75.7067 1149.65 75.44C1147.89 75.1733 1146.45 74.8667 1145.33 74.52C1144.23 74.1733 1143.27 73.5733 1142.45 72.72C1141.65 71.84 1141.25 70.6267 1141.25 69.08C1141.25 67.0533 1142.09 65.44 1143.77 64.24C1145.47 63.0133 1147.77 62.4 1150.65 62.4C1152.11 62.4 1153.58 62.5733 1155.05 62.92C1156.51 63.24 1157.71 63.68 1158.65 64.24L1156.73 68.04C1154.91 66.9733 1152.87 66.44 1150.61 66.44C1149.14 66.44 1148.02 66.6667 1147.25 67.12C1146.5 67.5467 1146.13 68.12 1146.13 68.84C1146.13 69.64 1146.53 70.2133 1147.33 70.56C1148.15 70.88 1149.42 71.1867 1151.13 71.48C1152.83 71.7467 1154.23 72.0533 1155.33 72.4C1156.42 72.7467 1157.35 73.3333 1158.13 74.16C1158.93 74.9867 1159.33 76.16 1159.33 77.68C1159.33 79.68 1158.46 81.28 1156.73 82.48C1154.99 83.68 1152.63 84.28 1149.65 84.28ZM1180.35 74.84L1176.63 78.36V84H1171.63V54.32H1176.63V72.24L1186.99 62.64H1192.99L1184.07 71.6L1193.83 84H1187.75L1180.35 74.84ZM1204.87 62.64H1209.87V84H1204.87V62.64ZM1207.39 59.12C1206.48 59.12 1205.72 58.84 1205.11 58.28C1204.49 57.6933 1204.19 56.9733 1204.19 56.12C1204.19 55.2667 1204.49 54.56 1205.11 54C1205.72 53.4133 1206.48 53.12 1207.39 53.12C1208.29 53.12 1209.05 53.4 1209.67 53.96C1210.28 54.4933 1210.59 55.1733 1210.59 56C1210.59 56.88 1210.28 57.6267 1209.67 58.24C1209.08 58.8267 1208.32 59.12 1207.39 59.12ZM514.864 173.432C513.179 173.432 511.899 173.101 511.024 172.44L512.176 169.464C512.773 169.912 513.552 170.136 514.512 170.136C515.259 170.136 515.824 169.901 516.208 169.432C516.613 168.984 516.816 168.312 516.816 167.416V149.912H520.816V167.32C520.816 169.219 520.293 170.712 519.248 171.8C518.203 172.888 516.741 173.432 514.864 173.432ZM518.8 147.096C518.075 147.096 517.467 146.872 516.976 146.424C516.485 145.955 516.24 145.379 516.24 144.696C516.24 144.013 516.485 143.448 516.976 143C517.467 142.531 518.075 142.296 518.8 142.296C519.525 142.296 520.133 142.52 520.624 142.968C521.115 143.395 521.36 143.939 521.36 144.6C521.36 145.304 521.115 145.901 520.624 146.392C520.155 146.861 519.547 147.096 518.8 147.096ZM549.006 149.912V167H545.198V164.824C544.558 165.592 543.758 166.189 542.798 166.616C541.838 167.021 540.803 167.224 539.694 167.224C537.411 167.224 535.608 166.595 534.286 165.336C532.984 164.056 532.333 162.168 532.333 159.672V149.912H536.333V159.128C536.333 160.664 536.675 161.816 537.358 162.584C538.061 163.331 539.053 163.704 540.333 163.704C541.763 163.704 542.894 163.267 543.726 162.392C544.579 161.496 545.006 160.216 545.006 158.552V149.912H549.006ZM570.339 149.72C572.493 149.72 574.221 150.349 575.523 151.608C576.824 152.867 577.475 154.733 577.475 157.208V167H573.475V157.72C573.475 156.227 573.123 155.107 572.419 154.36C571.715 153.592 570.712 153.208 569.411 153.208C567.939 153.208 566.776 153.656 565.923 154.552C565.069 155.427 564.643 156.696 564.643 158.36V167H560.643V149.912H564.451V152.12C565.112 151.331 565.944 150.733 566.947 150.328C567.949 149.923 569.08 149.72 570.339 149.72ZM588.949 149.912H592.949V167H588.949V149.912ZM590.965 147.096C590.24 147.096 589.632 146.872 589.141 146.424C588.65 145.955 588.405 145.379 588.405 144.696C588.405 144.013 588.65 143.448 589.141 143C589.632 142.531 590.24 142.296 590.965 142.296C591.69 142.296 592.298 142.52 592.789 142.968C593.28 143.395 593.525 143.939 593.525 144.6C593.525 145.304 593.28 145.901 592.789 146.392C592.32 146.861 591.712 147.096 590.965 147.096ZM612.279 167.224C610.551 167.224 608.994 166.851 607.607 166.104C606.22 165.357 605.132 164.323 604.343 163C603.575 161.656 603.191 160.141 603.191 158.456C603.191 156.771 603.575 155.267 604.343 153.944C605.132 152.621 606.22 151.587 607.607 150.84C608.994 150.093 610.551 149.72 612.279 149.72C614.028 149.72 615.596 150.093 616.983 150.84C618.37 151.587 619.447 152.621 620.215 153.944C621.004 155.267 621.399 156.771 621.399 158.456C621.399 160.141 621.004 161.656 620.215 163C619.447 164.323 618.37 165.357 616.983 166.104C615.596 166.851 614.028 167.224 612.279 167.224ZM612.279 163.8C613.751 163.8 614.967 163.309 615.927 162.328C616.887 161.347 617.367 160.056 617.367 158.456C617.367 156.856 616.887 155.565 615.927 154.584C614.967 153.603 613.751 153.112 612.279 153.112C610.807 153.112 609.591 153.603 608.631 154.584C607.692 155.565 607.223 156.856 607.223 158.456C607.223 160.056 607.692 161.347 608.631 162.328C609.591 163.309 610.807 163.8 612.279 163.8ZM635.432 152.408C636.584 150.616 638.611 149.72 641.512 149.72V153.528C641.171 153.464 640.861 153.432 640.584 153.432C639.027 153.432 637.811 153.891 636.936 154.808C636.061 155.704 635.624 157.005 635.624 158.712V167H631.624V149.912H635.432V152.408ZM673.649 146.264C671.964 146.264 671.121 147.181 671.121 149.016V150.04H675.825V153.24H671.249V167H667.249V153.24H664.433V150.04H667.249V148.952C667.249 147.117 667.783 145.677 668.849 144.632C669.916 143.565 671.42 143.032 673.361 143.032C674.897 143.032 676.103 143.341 676.977 143.96L675.857 146.968C675.175 146.499 674.439 146.264 673.649 146.264ZM701.462 149.912V167H697.654V164.824C697.014 165.592 696.214 166.189 695.254 166.616C694.294 167.021 693.259 167.224 692.15 167.224C689.867 167.224 688.064 166.595 686.742 165.336C685.44 164.056 684.79 162.168 684.79 159.672V149.912H688.79V159.128C688.79 160.664 689.131 161.816 689.814 162.584C690.518 163.331 691.51 163.704 692.79 163.704C694.219 163.704 695.35 163.267 696.182 162.392C697.035 161.496 697.462 160.216 697.462 158.552V149.912H701.462ZM713.099 143.256H717.099V167H713.099V143.256ZM728.749 143.256H732.749V167H728.749V143.256ZM749.679 167.224C748.292 167.224 746.938 167.043 745.615 166.68C744.292 166.317 743.236 165.859 742.447 165.304L743.983 162.264C744.751 162.776 745.668 163.192 746.735 163.512C747.823 163.811 748.89 163.96 749.935 163.96C752.324 163.96 753.519 163.331 753.519 162.072C753.519 161.475 753.21 161.059 752.591 160.824C751.994 160.589 751.023 160.365 749.679 160.152C748.271 159.939 747.119 159.693 746.223 159.416C745.348 159.139 744.58 158.659 743.919 157.976C743.279 157.272 742.959 156.301 742.959 155.064C742.959 153.443 743.631 152.152 744.975 151.192C746.34 150.211 748.175 149.72 750.479 149.72C751.652 149.72 752.826 149.859 753.999 150.136C755.172 150.392 756.132 150.744 756.879 151.192L755.343 154.232C753.892 153.379 752.26 152.952 750.447 152.952C749.274 152.952 748.378 153.133 747.759 153.496C747.162 153.837 746.863 154.296 746.863 154.872C746.863 155.512 747.183 155.971 747.823 156.248C748.484 156.504 749.498 156.749 750.863 156.984C752.228 157.197 753.348 157.443 754.223 157.72C755.098 157.997 755.844 158.467 756.463 159.128C757.103 159.789 757.423 160.728 757.423 161.944C757.423 163.544 756.73 164.824 755.343 165.784C753.956 166.744 752.068 167.224 749.679 167.224ZM777.54 166.072C777.07 166.456 776.494 166.744 775.812 166.936C775.15 167.128 774.446 167.224 773.7 167.224C771.822 167.224 770.372 166.733 769.348 165.752C768.324 164.771 767.812 163.341 767.812 161.464V153.24H764.996V150.04H767.812V146.136H771.812V150.04H776.388V153.24H771.812V161.368C771.812 162.2 772.014 162.84 772.42 163.288C772.825 163.715 773.412 163.928 774.18 163.928C775.076 163.928 775.822 163.693 776.42 163.224L777.54 166.072ZM793.758 149.72C796.276 149.72 798.196 150.328 799.518 151.544C800.862 152.739 801.534 154.552 801.534 156.984V167H797.758V164.92C797.268 165.667 796.564 166.243 795.646 166.648C794.75 167.032 793.662 167.224 792.382 167.224C791.102 167.224 789.982 167.011 789.022 166.584C788.062 166.136 787.316 165.528 786.782 164.76C786.27 163.971 786.014 163.085 786.014 162.104C786.014 160.568 786.58 159.341 787.71 158.424C788.862 157.485 790.665 157.016 793.118 157.016H797.534V156.76C797.534 155.565 797.172 154.648 796.446 154.008C795.742 153.368 794.686 153.048 793.278 153.048C792.318 153.048 791.369 153.197 790.43 153.496C789.513 153.795 788.734 154.211 788.094 154.744L786.526 151.832C787.422 151.149 788.5 150.627 789.758 150.264C791.017 149.901 792.35 149.72 793.758 149.72ZM793.214 164.312C794.217 164.312 795.102 164.088 795.87 163.64C796.66 163.171 797.214 162.509 797.534 161.656V159.672H793.406C791.102 159.672 789.95 160.429 789.95 161.944C789.95 162.669 790.238 163.245 790.814 163.672C791.39 164.099 792.19 164.312 793.214 164.312ZM821.064 167.224C819.293 167.224 817.704 166.851 816.296 166.104C814.888 165.357 813.789 164.323 813 163C812.211 161.656 811.816 160.141 811.816 158.456C811.816 156.771 812.211 155.267 813 153.944C813.789 152.621 814.877 151.587 816.264 150.84C817.672 150.093 819.272 149.72 821.064 149.72C822.749 149.72 824.221 150.061 825.48 150.744C826.76 151.427 827.72 152.408 828.36 153.688L825.288 155.48C824.797 154.691 824.179 154.104 823.432 153.72C822.707 153.315 821.907 153.112 821.032 153.112C819.539 153.112 818.301 153.603 817.32 154.584C816.339 155.544 815.848 156.835 815.848 158.456C815.848 160.077 816.328 161.379 817.288 162.36C818.269 163.32 819.517 163.8 821.032 163.8C821.907 163.8 822.707 163.608 823.432 163.224C824.179 162.819 824.797 162.221 825.288 161.432L828.36 163.224C827.699 164.504 826.728 165.496 825.448 166.2C824.189 166.883 822.728 167.224 821.064 167.224ZM845.038 159.672L842.062 162.488V167H838.062V143.256H842.062V157.592L850.35 149.912H855.15L848.014 157.08L855.822 167H850.958L845.038 159.672ZM896.785 143.256V167H892.945V164.792C892.284 165.603 891.462 166.211 890.481 166.616C889.521 167.021 888.454 167.224 887.281 167.224C885.638 167.224 884.156 166.861 882.833 166.136C881.532 165.411 880.508 164.387 879.761 163.064C879.014 161.72 878.641 160.184 878.641 158.456C878.641 156.728 879.014 155.203 879.761 153.88C880.508 152.557 881.532 151.533 882.833 150.808C884.156 150.083 885.638 149.72 887.281 149.72C888.412 149.72 889.446 149.912 890.385 150.296C891.324 150.68 892.124 151.256 892.785 152.024V143.256H896.785ZM887.761 163.8C888.721 163.8 889.585 163.587 890.353 163.16C891.121 162.712 891.729 162.083 892.177 161.272C892.625 160.461 892.849 159.523 892.849 158.456C892.849 157.389 892.625 156.451 892.177 155.64C891.729 154.829 891.121 154.211 890.353 153.784C889.585 153.336 888.721 153.112 887.761 153.112C886.801 153.112 885.937 153.336 885.169 153.784C884.401 154.211 883.793 154.829 883.345 155.64C882.897 156.451 882.673 157.389 882.673 158.456C882.673 159.523 882.897 160.461 883.345 161.272C883.793 162.083 884.401 162.712 885.169 163.16C885.937 163.587 886.801 163.8 887.761 163.8ZM924.482 158.552C924.482 158.829 924.46 159.224 924.418 159.736H911.01C911.244 160.995 911.852 161.997 912.834 162.744C913.836 163.469 915.074 163.832 916.546 163.832C918.423 163.832 919.97 163.213 921.186 161.976L923.33 164.44C922.562 165.357 921.591 166.051 920.418 166.52C919.244 166.989 917.922 167.224 916.45 167.224C914.572 167.224 912.919 166.851 911.49 166.104C910.06 165.357 908.951 164.323 908.162 163C907.394 161.656 907.01 160.141 907.01 158.456C907.01 156.792 907.383 155.299 908.13 153.976C908.898 152.632 909.954 151.587 911.298 150.84C912.642 150.093 914.156 149.72 915.842 149.72C917.506 149.72 918.988 150.093 920.29 150.84C921.612 151.565 922.636 152.6 923.362 153.944C924.108 155.267 924.482 156.803 924.482 158.552ZM915.842 152.92C914.562 152.92 913.474 153.304 912.578 154.072C911.703 154.819 911.17 155.821 910.978 157.08H920.674C920.503 155.843 919.98 154.84 919.106 154.072C918.231 153.304 917.143 152.92 915.842 152.92ZM950.412 149.912L943.084 167H938.956L931.628 149.912H935.788L941.1 162.584L946.572 149.912H950.412ZM974.907 158.552C974.907 158.829 974.885 159.224 974.843 159.736H961.435C961.669 160.995 962.277 161.997 963.259 162.744C964.261 163.469 965.499 163.832 966.971 163.832C968.848 163.832 970.395 163.213 971.611 161.976L973.755 164.44C972.987 165.357 972.016 166.051 970.843 166.52C969.669 166.989 968.347 167.224 966.875 167.224C964.997 167.224 963.344 166.851 961.915 166.104C960.485 165.357 959.376 164.323 958.587 163C957.819 161.656 957.435 160.141 957.435 158.456C957.435 156.792 957.808 155.299 958.555 153.976C959.323 152.632 960.379 151.587 961.723 150.84C963.067 150.093 964.581 149.72 966.267 149.72C967.931 149.72 969.413 150.093 970.715 150.84C972.037 151.565 973.061 152.6 973.787 153.944C974.533 155.267 974.907 156.803 974.907 158.552ZM966.267 152.92C964.987 152.92 963.899 153.304 963.003 154.072C962.128 154.819 961.595 155.821 961.403 157.08H971.099C970.928 155.843 970.405 154.84 969.531 154.072C968.656 153.304 967.568 152.92 966.267 152.92ZM985.149 143.256H989.149V167H985.149V143.256ZM1008.48 167.224C1006.75 167.224 1005.19 166.851 1003.81 166.104C1002.42 165.357 1001.33 164.323 1000.54 163C999.775 161.656 999.391 160.141 999.391 158.456C999.391 156.771 999.775 155.267 1000.54 153.944C1001.33 152.621 1002.42 151.587 1003.81 150.84C1005.19 150.093 1006.75 149.72 1008.48 149.72C1010.23 149.72 1011.8 150.093 1013.18 150.84C1014.57 151.587 1015.65 152.621 1016.41 153.944C1017.2 155.267 1017.6 156.771 1017.6 158.456C1017.6 160.141 1017.2 161.656 1016.41 163C1015.65 164.323 1014.57 165.357 1013.18 166.104C1011.8 166.851 1010.23 167.224 1008.48 167.224ZM1008.48 163.8C1009.95 163.8 1011.17 163.309 1012.13 162.328C1013.09 161.347 1013.57 160.056 1013.57 158.456C1013.57 156.856 1013.09 155.565 1012.13 154.584C1011.17 153.603 1009.95 153.112 1008.48 153.112C1007.01 153.112 1005.79 153.603 1004.83 154.584C1003.89 155.565 1003.42 156.856 1003.42 158.456C1003.42 160.056 1003.89 161.347 1004.83 162.328C1005.79 163.309 1007.01 163.8 1008.48 163.8ZM1037.3 149.72C1038.96 149.72 1040.44 150.083 1041.74 150.808C1043.07 151.533 1044.1 152.557 1044.85 153.88C1045.59 155.203 1045.97 156.728 1045.97 158.456C1045.97 160.184 1045.59 161.72 1044.85 163.064C1044.1 164.387 1043.07 165.411 1041.74 166.136C1040.44 166.861 1038.96 167.224 1037.3 167.224C1034.99 167.224 1033.17 166.456 1031.82 164.92V173.208H1027.82V149.912H1031.63V152.152C1032.29 151.341 1033.1 150.733 1034.06 150.328C1035.05 149.923 1036.12 149.72 1037.3 149.72ZM1036.85 163.8C1038.32 163.8 1039.53 163.309 1040.46 162.328C1041.42 161.347 1041.9 160.056 1041.9 158.456C1041.9 156.856 1041.42 155.565 1040.46 154.584C1039.53 153.603 1038.32 153.112 1036.85 153.112C1035.89 153.112 1035.02 153.336 1034.26 153.784C1033.49 154.211 1032.88 154.829 1032.43 155.64C1031.98 156.451 1031.76 157.389 1031.76 158.456C1031.76 159.523 1031.98 160.461 1032.43 161.272C1032.88 162.083 1033.49 162.712 1034.26 163.16C1035.02 163.587 1035.89 163.8 1036.85 163.8ZM1072.23 158.552C1072.23 158.829 1072.2 159.224 1072.16 159.736H1058.75C1058.99 160.995 1059.6 161.997 1060.58 162.744C1061.58 163.469 1062.82 163.832 1064.29 163.832C1066.17 163.832 1067.71 163.213 1068.93 161.976L1071.07 164.44C1070.31 165.357 1069.33 166.051 1068.16 166.52C1066.99 166.989 1065.67 167.224 1064.19 167.224C1062.32 167.224 1060.66 166.851 1059.23 166.104C1057.8 165.357 1056.69 164.323 1055.91 163C1055.14 161.656 1054.75 160.141 1054.75 158.456C1054.75 156.792 1055.13 155.299 1055.87 153.976C1056.64 152.632 1057.7 151.587 1059.04 150.84C1060.39 150.093 1061.9 149.72 1063.59 149.72C1065.25 149.72 1066.73 150.093 1068.03 150.84C1069.36 151.565 1070.38 152.6 1071.11 153.944C1071.85 155.267 1072.23 156.803 1072.23 158.552ZM1063.59 152.92C1062.31 152.92 1061.22 153.304 1060.32 154.072C1059.45 154.819 1058.91 155.821 1058.72 157.08H1068.42C1068.25 155.843 1067.72 154.84 1066.85 154.072C1065.97 153.304 1064.89 152.92 1063.59 152.92ZM1086.28 152.408C1087.43 150.616 1089.45 149.72 1092.36 149.72V153.528C1092.01 153.464 1091.71 153.432 1091.43 153.432C1089.87 153.432 1088.65 153.891 1087.78 154.808C1086.91 155.704 1086.47 157.005 1086.47 158.712V167H1082.47V149.912H1086.28V152.408Z" fill="white"/>
</svg>
