<svg width="2000" height="300" viewBox="0 0 2000 300" fill="none" xmlns="http://www.w3.org/2000/svg">
<rect width="2000" height="300" fill="#E5E5E5"/>
<g clip-path="url(#clip0)">
<path d="M2000 -2H0V182H2000V-2Z" fill="#CFF5EA"/>
<path d="M1909.53 266.985C1910.05 267.415 1910.83 267.336 1911.26 266.809C1911.69 266.283 1911.61 265.507 1911.08 265.077C1910.56 264.648 1909.78 264.726 1909.35 265.253C1908.92 265.78 1909 266.555 1909.53 266.985Z" fill="white"/>
<path d="M1933.59 255.757C1934.11 256.187 1934.89 256.108 1935.32 255.581C1935.75 255.055 1935.67 254.279 1935.14 253.849C1934.62 253.419 1933.84 253.498 1933.41 254.025C1932.98 254.552 1933.06 255.327 1933.59 255.757Z" fill="white"/>
<path d="M1946.82 224.078C1947.35 224.508 1948.12 224.429 1948.55 223.902C1948.98 223.376 1948.9 222.6 1948.38 222.17C1947.85 221.741 1947.07 221.819 1946.64 222.346C1946.21 222.873 1946.29 223.649 1946.82 224.078Z" fill="white"/>
<path d="M1901.51 198.815C1902.03 199.245 1902.81 199.166 1903.24 198.639C1903.67 198.113 1903.59 197.337 1903.06 196.907C1902.54 196.478 1901.76 196.556 1901.33 197.083C1900.9 197.61 1900.98 198.386 1901.51 198.815Z" fill="white"/>
<path d="M1944.81 287.035C1945.34 287.465 1946.12 287.386 1946.55 286.859C1946.98 286.333 1946.9 285.557 1946.37 285.127C1945.84 284.698 1945.07 284.776 1944.64 285.303C1944.21 285.83 1944.29 286.605 1944.81 287.035Z" fill="#CFF5EA"/>
<path d="M1957.95 248.686C1958.48 249.116 1959.26 249.037 1959.69 248.51C1960.12 247.983 1960.04 247.208 1959.51 246.778C1958.98 246.348 1958.21 246.427 1957.78 246.954C1957.35 247.481 1957.43 248.256 1957.95 248.686Z" fill="#CFF5EA"/>
<path d="M1872.95 237.686C1873.48 238.116 1874.26 238.037 1874.69 237.51C1875.12 236.983 1875.04 236.208 1874.51 235.778C1873.98 235.348 1873.21 235.427 1872.78 235.954C1872.35 236.481 1872.43 237.256 1872.95 237.686Z" fill="#CFF5EA"/>
<path d="M1888.95 288.686C1889.48 289.116 1890.26 289.037 1890.69 288.51C1891.12 287.983 1891.04 287.208 1890.51 286.778C1889.98 286.348 1889.21 286.427 1888.78 286.954C1888.35 287.481 1888.43 288.256 1888.95 288.686Z" fill="#CFF5EA"/>
<path d="M1967.27 248.138C1967.8 248.568 1968.57 248.489 1969 247.962C1969.43 247.436 1969.35 246.66 1968.83 246.23C1968.3 245.8 1967.52 245.879 1967.09 246.406C1966.66 246.933 1966.74 247.708 1967.27 248.138Z" fill="#CFF5EA"/>
<path d="M1921.95 271.686C1922.48 272.116 1923.26 272.037 1923.69 271.51C1924.12 270.983 1924.04 270.208 1923.51 269.778C1922.98 269.348 1922.21 269.427 1921.78 269.954C1921.35 270.481 1921.43 271.256 1921.95 271.686Z" fill="#CFF5EA"/>
<path d="M1899.95 246.686C1900.48 247.116 1901.26 247.037 1901.69 246.51C1902.12 245.983 1902.04 245.208 1901.51 244.778C1900.98 244.348 1900.21 244.427 1899.78 244.954C1899.35 245.481 1899.43 246.256 1899.95 246.686Z" fill="#CFF5EA"/>
<path d="M1972.3 247.417C1974.68 249.355 1978.17 249 1980.11 246.624C1982.05 244.248 1981.7 240.751 1979.32 238.813C1976.94 236.876 1973.45 237.231 1971.51 239.606C1969.57 241.982 1969.93 245.479 1972.3 247.417Z" fill="#CFF5EA"/>
<path d="M1906.95 219.686C1907.48 220.116 1908.26 220.037 1908.69 219.51C1909.12 218.983 1909.04 218.208 1908.51 217.778C1907.98 217.348 1907.21 217.427 1906.78 217.954C1906.35 218.481 1906.43 219.256 1906.95 219.686Z" fill="#CFF5EA"/>
<path d="M1985.95 270.686C1986.48 271.116 1987.26 271.037 1987.69 270.51C1988.12 269.983 1988.04 269.208 1987.51 268.778C1986.98 268.348 1986.21 268.427 1985.78 268.954C1985.35 269.481 1985.43 270.256 1985.95 270.686Z" fill="#CFF5EA"/>
<path d="M1963.66 211.647C1964.19 212.077 1964.96 211.998 1965.39 211.471C1965.82 210.945 1965.74 210.169 1965.22 209.739C1964.69 209.31 1963.92 209.388 1963.49 209.915C1963.06 210.442 1963.13 211.217 1963.66 211.647Z" fill="#CFF5EA"/>
<path d="M1898.3 153.903C1898.83 154.333 1899.6 154.254 1900.03 153.727C1900.46 153.201 1900.38 152.425 1899.85 151.995C1899.33 151.566 1898.55 151.644 1898.12 152.171C1897.69 152.698 1897.77 153.474 1898.3 153.903Z" fill="#CFF5EA"/>
<path d="M1936.79 193.602C1937.32 194.032 1938.1 193.953 1938.53 193.427C1938.96 192.9 1938.88 192.124 1938.35 191.694C1937.82 191.265 1937.05 191.343 1936.62 191.87C1936.19 192.397 1936.27 193.173 1936.79 193.602Z" fill="#CFF5EA"/>
<path d="M1967.27 296.659C1967.8 297.089 1968.57 297.01 1969 296.483C1969.43 295.957 1969.35 295.181 1968.83 294.751C1968.3 294.322 1967.52 294.4 1967.09 294.927C1966.66 295.454 1966.74 296.23 1967.27 296.659Z" fill="#CFF5EA"/>
<path d="M1974.95 219.686C1975.48 220.116 1976.26 220.037 1976.69 219.51C1977.12 218.983 1977.04 218.208 1976.51 217.778C1975.98 217.348 1975.21 217.427 1974.78 217.954C1974.35 218.481 1974.43 219.256 1974.95 219.686Z" fill="#CFF5EA"/>
<path d="M1870.95 187.686C1871.48 188.116 1872.26 188.037 1872.69 187.51C1873.12 186.983 1873.04 186.208 1872.51 185.778C1871.98 185.348 1871.21 185.427 1870.78 185.954C1870.35 186.481 1870.43 187.256 1870.95 187.686Z" fill="#CFF5EA"/>
<path d="M1993.95 251.686C1994.48 252.116 1995.26 252.037 1995.69 251.51C1996.12 250.983 1996.04 250.208 1995.51 249.778C1994.98 249.348 1994.21 249.427 1993.78 249.954C1993.35 250.481 1993.43 251.256 1993.95 251.686Z" fill="#CFF5EA"/>
<path d="M1928.95 208.686C1929.48 209.116 1930.26 209.037 1930.69 208.51C1931.12 207.983 1931.04 207.208 1930.51 206.778C1929.98 206.348 1929.21 206.427 1928.78 206.954C1928.35 207.481 1928.43 208.256 1928.95 208.686Z" fill="#CFF5EA"/>
<path d="M1894.69 266.985C1895.22 267.415 1895.99 267.336 1896.42 266.809C1896.85 266.283 1896.77 265.507 1896.25 265.077C1895.72 264.648 1894.94 264.726 1894.51 265.253C1894.08 265.78 1894.16 266.555 1894.69 266.985Z" fill="#CFF5EA"/>
<path d="M1939.25 270.314C1940.91 270.314 1942.26 268.968 1942.26 267.307C1942.26 265.646 1940.91 264.299 1939.25 264.299C1937.59 264.299 1936.24 265.646 1936.24 267.307C1936.24 268.968 1937.59 270.314 1939.25 270.314Z" fill="#CFF5EA"/>
<path d="M1960.1 281.943C1961.76 281.943 1963.11 280.597 1963.11 278.936C1963.11 277.275 1961.76 275.928 1960.1 275.928C1958.44 275.928 1957.09 277.275 1957.09 278.936C1957.09 280.597 1958.44 281.943 1960.1 281.943Z" fill="#CFF5EA"/>
<path d="M1957.29 264.299C1958.95 264.299 1960.3 262.952 1960.3 261.291C1960.3 259.631 1958.95 258.284 1957.29 258.284C1955.63 258.284 1954.29 259.631 1954.29 261.291C1954.29 262.952 1955.63 264.299 1957.29 264.299Z" fill="#CFF5EA"/>
<path d="M1977.01 279.015C1978.67 279.015 1980.01 277.668 1980.01 276.007C1980.01 274.347 1978.67 273 1977.01 273C1975.35 273 1974 274.347 1974 276.007C1974 277.668 1975.35 279.015 1977.01 279.015Z" fill="#CFF5EA"/>
<path d="M1995.01 300.015C1996.67 300.015 1998.01 298.668 1998.01 297.007C1998.01 295.347 1996.67 294 1995.01 294C1993.35 294 1992 295.347 1992 297.007C1992 298.668 1993.35 300.015 1995.01 300.015Z" fill="#CFF5EA"/>
<path d="M1947.67 244.249C1949.33 244.249 1950.68 242.903 1950.68 241.242C1950.68 239.581 1949.33 238.234 1947.67 238.234C1946.01 238.234 1944.66 239.581 1944.66 241.242C1944.66 242.903 1946.01 244.249 1947.67 244.249Z" fill="#CFF5EA"/>
<path d="M1966.01 227.015C1967.67 227.015 1969.01 225.668 1969.01 224.007C1969.01 222.347 1967.67 221 1966.01 221C1964.35 221 1963 222.347 1963 224.007C1963 225.668 1964.35 227.015 1966.01 227.015Z" fill="#CFF5EA"/>
<path d="M1925 198C1928.31 198 1931 195.314 1931 192C1931 188.686 1928.31 186 1925 186C1921.69 186 1919 188.686 1919 192C1919 195.314 1921.69 198 1925 198Z" fill="#CFF5EA"/>
<path d="M1974.01 202.015C1975.67 202.015 1977.01 200.668 1977.01 199.007C1977.01 197.347 1975.67 196 1974.01 196C1972.35 196 1971 197.347 1971 199.007C1971 200.668 1972.35 202.015 1974.01 202.015Z" fill="#CFF5EA"/>
<path d="M1918 236C1921.31 236 1924 233.314 1924 230C1924 226.686 1921.31 224 1918 224C1914.69 224 1912 226.686 1912 230C1912 233.314 1914.69 236 1918 236Z" fill="#CFF5EA"/>
<path d="M1931 265C1934.31 265 1937 262.314 1937 259C1937 255.686 1934.31 253 1931 253C1927.69 253 1925 255.686 1925 259C1925 262.314 1927.69 265 1931 265Z" fill="#CFF5EA"/>
<path d="M1944 206C1947.31 206 1950 203.314 1950 200C1950 196.686 1947.31 194 1944 194C1940.69 194 1938 196.686 1938 200C1938 203.314 1940.69 206 1944 206Z" fill="#CFF5EA"/>
<path d="M1990.01 185.015C1991.67 185.015 1993.01 183.668 1993.01 182.007C1993.01 180.347 1991.67 179 1990.01 179C1988.35 179 1987 180.347 1987 182.007C1987 183.668 1988.35 185.015 1990.01 185.015Z" fill="#CFF5EA"/>
<path d="M1992.01 215.015C1993.67 215.015 1995.01 213.668 1995.01 212.007C1995.01 210.347 1993.67 209 1992.01 209C1990.35 209 1989 210.347 1989 212.007C1989 213.668 1990.35 215.015 1992.01 215.015Z" fill="#CFF5EA"/>
<path d="M1995.01 198.015C1996.67 198.015 1998.01 196.668 1998.01 195.007C1998.01 193.347 1996.67 192 1995.01 192C1993.35 192 1992 193.347 1992 195.007C1992 196.668 1993.35 198.015 1995.01 198.015Z" fill="#CFF5EA"/>
<path d="M1890.73 211.768C1892.39 211.768 1893.73 210.421 1893.73 208.76C1893.73 207.099 1892.39 205.753 1890.73 205.753C1889.07 205.753 1887.72 207.099 1887.72 208.76C1887.72 210.421 1889.07 211.768 1890.73 211.768Z" fill="#CFF5EA"/>
<path d="M1987.01 235.015C1988.67 235.015 1990.01 233.668 1990.01 232.007C1990.01 230.347 1988.67 229 1987.01 229C1985.35 229 1984 230.347 1984 232.007C1984 233.668 1985.35 235.015 1987.01 235.015Z" fill="#CFF5EA"/>
<path d="M1930.83 229.412C1932.49 229.412 1933.83 228.065 1933.83 226.404C1933.83 224.743 1932.49 223.397 1930.83 223.397C1929.17 223.397 1927.82 224.743 1927.82 226.404C1927.82 228.065 1929.17 229.412 1930.83 229.412Z" fill="#CFF5EA"/>
<path d="M1931.01 251.015C1932.67 251.015 1934.01 249.668 1934.01 248.007C1934.01 246.347 1932.67 245 1931.01 245C1929.35 245 1928 246.347 1928 248.007C1928 249.668 1929.35 251.015 1931.01 251.015Z" fill="#CFF5EA"/>
<path d="M1918.8 145.603C1920.46 145.603 1921.8 144.256 1921.8 142.595C1921.8 140.934 1920.46 139.588 1918.8 139.588C1917.14 139.588 1915.79 140.934 1915.79 142.595C1915.79 144.256 1917.14 145.603 1918.8 145.603Z" fill="#CFF5EA"/>
<path d="M1923.01 289.562C1926.77 289.562 1929.83 286.51 1929.83 282.745C1929.83 278.98 1926.77 275.928 1923.01 275.928C1919.24 275.928 1916.19 278.98 1916.19 282.745C1916.19 286.51 1919.24 289.562 1923.01 289.562Z" fill="#CFF5EA"/>
<path d="M1996 225C2000.97 225 2005 220.971 2005 216C2005 211.029 2000.97 207 1996 207C1991.03 207 1987 211.029 1987 216C1987 220.971 1991.03 225 1996 225Z" fill="#CFF5EA"/>
<path d="M1918.8 223.397C1920.46 223.397 1921.8 222.05 1921.8 220.389C1921.8 218.728 1920.46 217.382 1918.8 217.382C1917.14 217.382 1915.79 218.728 1915.79 220.389C1915.79 222.05 1917.14 223.397 1918.8 223.397Z" fill="white"/>
<path d="M1991 176C1994.87 176 1998 172.866 1998 169C1998 165.134 1994.87 162 1991 162C1987.13 162 1984 165.134 1984 169C1984 172.866 1987.13 176 1991 176Z" fill="white"/>
<path d="M1887 36C1890.87 36 1894 32.866 1894 29C1894 25.134 1890.87 22 1887 22C1883.13 22 1880 25.134 1880 29C1880 32.866 1883.13 36 1887 36Z" fill="white"/>
<path d="M1989 14C1992.87 14 1996 10.866 1996 7C1996 3.13401 1992.87 0 1989 0C1985.13 0 1982 3.13401 1982 7C1982 10.866 1985.13 14 1989 14Z" fill="white"/>
<path d="M1957.69 100.691C1959.36 100.691 1960.7 99.3445 1960.7 97.6835C1960.7 96.0225 1959.36 94.676 1957.69 94.676C1956.03 94.676 1954.69 96.0225 1954.69 97.6835C1954.69 99.3445 1956.03 100.691 1957.69 100.691Z" fill="white"/>
<path d="M1904.01 20.015C1905.67 20.015 1907.01 18.6685 1907.01 17.0075C1907.01 15.3465 1905.67 14 1904.01 14C1902.35 14 1901 15.3465 1901 17.0075C1901 18.6685 1902.35 20.015 1904.01 20.015Z" fill="white"/>
<path d="M1887.12 94.676C1888.78 94.676 1890.13 93.3295 1890.13 91.6685C1890.13 90.0075 1888.78 88.661 1887.12 88.661C1885.46 88.661 1884.11 90.0075 1884.11 91.6685C1884.11 93.3295 1885.46 94.676 1887.12 94.676Z" fill="white"/>
<path d="M1954.49 142.796C1956.15 142.796 1957.49 141.45 1957.49 139.789C1957.49 138.128 1956.15 136.781 1954.49 136.781C1952.83 136.781 1951.48 138.128 1951.48 139.789C1951.48 141.45 1952.83 142.796 1954.49 142.796Z" fill="white"/>
<path d="M1940.05 79.839C1941.71 79.839 1943.06 78.4925 1943.06 76.8315C1943.06 75.1705 1941.71 73.824 1940.05 73.824C1938.39 73.824 1937.04 75.1705 1937.04 76.8315C1937.04 78.4925 1938.39 79.839 1940.05 79.839Z" fill="white"/>
<path d="M1957.49 199.738C1962.37 199.738 1966.32 195.788 1966.32 190.916C1966.32 186.044 1962.37 182.094 1957.49 182.094C1952.62 182.094 1948.67 186.044 1948.67 190.916C1948.67 195.788 1952.62 199.738 1957.49 199.738Z" fill="#CFF5EA"/>
<path d="M1886.92 177.282C1891.79 177.282 1895.74 173.332 1895.74 168.46C1895.74 163.588 1891.79 159.638 1886.92 159.638C1882.05 159.638 1878.1 163.588 1878.1 168.46C1878.1 173.332 1882.05 177.282 1886.92 177.282Z" fill="white"/>
<path d="M1887.72 139.588C1892.59 139.588 1896.54 135.638 1896.54 130.766C1896.54 125.894 1892.59 121.944 1887.72 121.944C1882.85 121.944 1878.9 125.894 1878.9 130.766C1878.9 135.638 1882.85 139.588 1887.72 139.588Z" fill="white"/>
<path d="M1954.5 171C1961.96 171 1968 164.956 1968 157.5C1968 150.044 1961.96 144 1954.5 144C1947.04 144 1941 150.044 1941 157.5C1941 164.956 1947.04 171 1954.5 171Z" fill="white"/>
<path d="M1993.5 53C2000.96 53 2007 46.9558 2007 39.5C2007 32.0442 2000.96 26 1993.5 26C1986.04 26 1980 32.0442 1980 39.5C1980 46.9558 1986.04 53 1993.5 53Z" fill="white"/>
<path d="M1925.01 46.155C1929.89 46.155 1933.84 42.2052 1933.84 37.333C1933.84 32.4607 1929.89 28.511 1925.01 28.511C1920.14 28.511 1916.19 32.4607 1916.19 37.333C1916.19 42.2052 1920.14 46.155 1925.01 46.155Z" fill="white"/>
<path d="M1930.82 13.644C1935.69 13.644 1939.64 9.69426 1939.64 4.822C1939.64 -0.0502563 1935.69 -4 1930.82 -4C1925.95 -4 1922 -0.0502563 1922 4.822C1922 9.69426 1925.95 13.644 1930.82 13.644Z" fill="white"/>
<path d="M1959.1 39.338C1963.97 39.338 1967.92 35.3882 1967.92 30.516C1967.92 25.6437 1963.97 21.694 1959.1 21.694C1954.23 21.694 1950.28 25.6437 1950.28 30.516C1950.28 35.3882 1954.23 39.338 1959.1 39.338Z" fill="white"/>
<path d="M1912.98 108.711C1917.86 108.711 1921.81 104.761 1921.81 99.889C1921.81 95.0168 1917.86 91.067 1912.98 91.067C1908.11 91.067 1904.16 95.0168 1904.16 99.889C1904.16 104.761 1908.11 108.711 1912.98 108.711Z" fill="white"/>
<path d="M1912.98 190.515C1917.86 190.515 1921.81 186.565 1921.81 181.693C1921.81 176.821 1917.86 172.871 1912.98 172.871C1908.11 172.871 1904.16 176.821 1904.16 181.693C1904.16 186.565 1908.11 190.515 1912.98 190.515Z" fill="#CFF5EA"/>
<path d="M1938.65 157.232C1943.52 157.232 1947.47 153.282 1947.47 148.41C1947.47 143.538 1943.52 139.588 1938.65 139.588C1933.77 139.588 1929.82 143.538 1929.82 148.41C1929.82 153.282 1933.77 157.232 1938.65 157.232Z" fill="#CFF5EA"/>
<path d="M1957.09 123.147C1961.97 123.147 1965.91 119.197 1965.91 114.325C1965.91 109.453 1961.97 105.503 1957.09 105.503C1952.22 105.503 1948.27 109.453 1948.27 114.325C1948.27 119.197 1952.22 123.147 1957.09 123.147Z" fill="#CFF5EA"/>
<path d="M1895.94 131.568C1905.35 131.568 1912.98 123.938 1912.98 114.525C1912.98 105.113 1905.35 97.483 1895.94 97.483C1886.53 97.483 1878.9 105.113 1878.9 114.525C1878.9 123.938 1886.53 131.568 1895.94 131.568Z" fill="#CFF5EA"/>
<path d="M1903.96 129.162C1905.62 129.162 1906.97 127.815 1906.97 126.154C1906.97 124.493 1905.62 123.147 1903.96 123.147C1902.3 123.147 1900.95 124.493 1900.95 126.154C1900.95 127.815 1902.3 129.162 1903.96 129.162Z" fill="white"/>
<path d="M1933.63 148.811C1935.3 148.811 1936.64 147.465 1936.64 145.804C1936.64 144.143 1935.3 142.796 1933.63 142.796C1931.97 142.796 1930.63 144.143 1930.63 145.804C1930.63 147.465 1931.97 148.811 1933.63 148.811Z" fill="white"/>
<path d="M1950.48 188.109C1952.14 188.109 1953.48 186.762 1953.48 185.101C1953.48 183.44 1952.14 182.094 1950.48 182.094C1948.82 182.094 1947.47 183.44 1947.47 185.101C1947.47 186.762 1948.82 188.109 1950.48 188.109Z" fill="white"/>
<path d="M1972.93 77.032C1974.59 77.032 1975.94 75.6855 1975.94 74.0245C1975.94 72.3635 1974.59 71.017 1972.93 71.017C1971.27 71.017 1969.93 72.3635 1969.93 74.0245C1969.93 75.6855 1971.27 77.032 1972.93 77.032Z" fill="white"/>
<path d="M1919.2 220.189C1920.86 220.189 1922.21 218.843 1922.21 217.182C1922.21 215.521 1920.86 214.174 1919.2 214.174C1917.54 214.174 1916.19 215.521 1916.19 217.182C1916.19 218.843 1917.54 220.189 1919.2 220.189Z" fill="white"/>
<path d="M1965.71 241.442C1967.38 241.442 1968.72 240.096 1968.72 238.435C1968.72 236.774 1967.38 235.427 1965.71 235.427C1964.05 235.427 1962.71 236.774 1962.71 238.435C1962.71 240.096 1964.05 241.442 1965.71 241.442Z" fill="white"/>
<path d="M1963.71 158.836C1965.37 158.836 1966.72 157.49 1966.72 155.829C1966.72 154.168 1965.37 152.821 1963.71 152.821C1962.05 152.821 1960.7 154.168 1960.7 155.829C1960.7 157.49 1962.05 158.836 1963.71 158.836Z" fill="white"/>
<path d="M1977.01 151.015C1978.67 151.015 1980.01 149.668 1980.01 148.007C1980.01 146.347 1978.67 145 1977.01 145C1975.35 145 1974 146.347 1974 148.007C1974 149.668 1975.35 151.015 1977.01 151.015Z" fill="white"/>
<path d="M1991 56C1991.55 56 1992 55.5523 1992 55C1992 54.4477 1991.55 54 1991 54C1990.45 54 1990 54.4477 1990 55C1990 55.5523 1990.45 56 1991 56Z" fill="white"/>
<path d="M1962 54C1962.55 54 1963 53.5523 1963 53C1963 52.4477 1962.55 52 1962 52C1961.45 52 1961 52.4477 1961 53C1961 53.5523 1961.45 54 1962 54Z" fill="white"/>
<path d="M1996 134C1996.55 134 1997 133.552 1997 133C1997 132.448 1996.55 132 1996 132C1995.45 132 1995 132.448 1995 133C1995 133.552 1995.45 134 1996 134Z" fill="white"/>
<path d="M1954 168C1954.55 168 1955 167.552 1955 167C1955 166.448 1954.55 166 1954 166C1953.45 166 1953 166.448 1953 167C1953 167.552 1953.45 168 1954 168Z" fill="white"/>
<path d="M1890 41C1890.55 41 1891 40.5523 1891 40C1891 39.4477 1890.55 39 1890 39C1889.45 39 1889 39.4477 1889 40C1889 40.5523 1889.45 41 1890 41Z" fill="white"/>
<path d="M1917 62C1917.55 62 1918 61.5523 1918 61C1918 60.4477 1917.55 60 1917 60C1916.45 60 1916 60.4477 1916 61C1916 61.5523 1916.45 62 1917 62Z" fill="white"/>
<path d="M1943 178C1943.55 178 1944 177.552 1944 177C1944 176.448 1943.55 176 1943 176C1942.45 176 1942 176.448 1942 177C1942 177.552 1942.45 178 1943 178Z" fill="white"/>
<path d="M1915 160C1915.55 160 1916 159.552 1916 159C1916 158.448 1915.55 158 1915 158C1914.45 158 1914 158.448 1914 159C1914 159.552 1914.45 160 1915 160Z" fill="white"/>
<path d="M1890 155C1890.55 155 1891 154.552 1891 154C1891 153.448 1890.55 153 1890 153C1889.45 153 1889 153.448 1889 154C1889 154.552 1889.45 155 1890 155Z" fill="white"/>
<path d="M1973 4C1973.55 4 1974 3.55228 1974 3C1974 2.44772 1973.55 2 1973 2C1972.45 2 1972 2.44772 1972 3C1972 3.55228 1972.45 4 1973 4Z" fill="white"/>
<path d="M1989.5 104C1991.99 104 1994 101.985 1994 99.5C1994 97.0147 1991.99 95 1989.5 95C1987.01 95 1985 97.0147 1985 99.5C1985 101.985 1987.01 104 1989.5 104Z" fill="white"/>
<path d="M109.28 34V62H105.28V49.52H89.2V62H85.2V34H89.2V46.04H105.28V34H109.28ZM125.661 34H129.661V62H125.661V34ZM146.444 56.76C147.19 56.76 147.804 57.0267 148.284 57.56C148.79 58.0667 149.044 58.7067 149.044 59.48C149.044 59.88 148.99 60.2667 148.884 60.64C148.804 61.0133 148.63 61.5867 148.364 62.36L146.484 67.92H143.964L145.444 61.96C144.937 61.7733 144.524 61.4667 144.204 61.04C143.91 60.5867 143.764 60.0667 143.764 59.48C143.764 58.68 144.017 58.0267 144.524 57.52C145.03 57.0133 145.67 56.76 146.444 56.76ZM181.848 34H185.848V62H181.848V34ZM202.631 32.08C203.378 32.08 203.991 32.3467 204.471 32.88C204.978 33.3867 205.231 34.0267 205.231 34.8C205.231 35.2 205.191 35.6 205.111 36C205.031 36.3733 204.858 36.92 204.591 37.64L202.671 43.24H200.151L201.631 37.28C201.125 37.0933 200.711 36.7867 200.391 36.36C200.098 35.9067 199.951 35.3867 199.951 34.8C199.951 34 200.205 33.3467 200.711 32.84C201.218 32.3333 201.858 32.08 202.631 32.08ZM245.254 62L245.214 41.6L235.094 58.6H233.254L223.134 41.72V62H219.294V34H222.574L234.254 53.68L245.774 34H249.054L249.094 62H245.254ZM295.159 34C298.786 34 301.639 34.8667 303.719 36.6C305.799 38.3333 306.839 40.72 306.839 43.76C306.839 46.8 305.799 49.1867 303.719 50.92C301.639 52.6533 298.786 53.52 295.159 53.52H288.239V62H284.239V34H295.159ZM295.039 50.04C297.572 50.04 299.506 49.5067 300.839 48.44C302.172 47.3467 302.839 45.7867 302.839 43.76C302.839 41.7333 302.172 40.1867 300.839 39.12C299.506 38.0267 297.572 37.48 295.039 37.48H288.239V50.04H295.039ZM341.036 58.52V62H320.716V34H340.476V37.48H324.716V46.08H338.756V49.48H324.716V58.52H341.036ZM361.073 37.48H351.473V34H374.633V37.48H365.033V62H361.073V37.48ZM407.309 58.52V62H386.989V34H406.749V37.48H390.989V46.08H405.029V49.48H390.989V58.52H407.309ZM440.506 62L434.466 53.4C433.719 53.4533 433.133 53.48 432.706 53.48H425.786V62H421.786V34H432.706C436.333 34 439.186 34.8667 441.266 36.6C443.346 38.3333 444.386 40.72 444.386 43.76C444.386 45.92 443.853 47.76 442.786 49.28C441.719 50.8 440.199 51.9067 438.226 52.6L444.866 62H440.506ZM432.586 50.08C435.119 50.08 437.053 49.5333 438.386 48.44C439.719 47.3467 440.386 45.7867 440.386 43.76C440.386 41.7333 439.719 40.1867 438.386 39.12C437.053 38.0267 435.119 37.48 432.586 37.48H425.786V50.08H432.586ZM481.191 62.32C479.511 62.32 477.951 61.9733 476.511 61.28C475.071 60.56 473.911 59.56 473.031 58.28L475.351 55.56C476.897 57.7733 478.844 58.88 481.191 58.88C482.764 58.88 483.951 58.4 484.751 57.44C485.577 56.48 485.991 55.0667 485.991 53.2V37.48H475.871V34H489.951V53C489.951 56.0933 489.204 58.4267 487.711 60C486.244 61.5467 484.071 62.32 481.191 62.32ZM523.352 55H508.473L505.393 62H501.272L513.953 34H517.913L530.633 62H526.433L523.352 55ZM521.953 51.8L515.913 38.08L509.873 51.8H521.953ZM566.889 34V62H563.609L546.809 41.12V62H542.809V34H546.089L562.889 54.88V34H566.889ZM583.27 34H587.27V62H583.27V34ZM611.813 62.32C609.706 62.32 607.666 62 605.693 61.36C603.746 60.6933 602.213 59.84 601.093 58.8L602.573 55.68C603.64 56.64 605 57.4267 606.653 58.04C608.333 58.6267 610.053 58.92 611.813 58.92C614.133 58.92 615.866 58.5333 617.013 57.76C618.16 56.96 618.733 55.9067 618.733 54.6C618.733 53.64 618.413 52.8667 617.773 52.28C617.16 51.6667 616.386 51.2 615.453 50.88C614.546 50.56 613.253 50.2 611.573 49.8C609.466 49.2933 607.76 48.7867 606.453 48.28C605.173 47.7733 604.066 47 603.133 45.96C602.226 44.8933 601.773 43.4667 601.773 41.68C601.773 40.1867 602.16 38.84 602.933 37.64C603.733 36.44 604.933 35.48 606.533 34.76C608.133 34.04 610.12 33.68 612.493 33.68C614.146 33.68 615.773 33.8933 617.373 34.32C618.973 34.7467 620.346 35.36 621.493 36.16L620.173 39.36C619 38.6133 617.746 38.0533 616.413 37.68C615.08 37.28 613.773 37.08 612.493 37.08C610.226 37.08 608.52 37.4933 607.373 38.32C606.253 39.1467 605.693 40.2133 605.693 41.52C605.693 42.48 606.013 43.2667 606.653 43.88C607.293 44.4667 608.08 44.9333 609.013 45.28C609.973 45.6 611.266 45.9467 612.893 46.32C615 46.8267 616.693 47.3333 617.973 47.84C619.253 48.3467 620.346 49.12 621.253 50.16C622.186 51.2 622.653 52.6 622.653 54.36C622.653 55.8267 622.253 57.1733 621.453 58.4C620.653 59.6 619.44 60.56 617.813 61.28C616.186 61.9733 614.186 62.32 611.813 62.32ZM657.417 58.52V62H634.017V59.28L651.617 37.48H634.297V34H656.897V36.72L639.377 58.52H657.417ZM691.106 58.52V62H670.786V34H690.546V37.48H674.786V46.08H688.826V49.48H674.786V58.52H691.106ZM744.752 34L735.392 62H731.192L723.552 39.64L715.912 62H711.632L702.272 34H706.392L713.952 56.76L721.832 34H725.512L733.232 56.88L740.952 34H744.752ZM765.805 62.32C763.699 62.32 761.659 62 759.685 61.36C757.739 60.6933 756.205 59.84 755.085 58.8L756.565 55.68C757.632 56.64 758.992 57.4267 760.645 58.04C762.325 58.6267 764.045 58.92 765.805 58.92C768.125 58.92 769.859 58.5333 771.005 57.76C772.152 56.96 772.725 55.9067 772.725 54.6C772.725 53.64 772.405 52.8667 771.765 52.28C771.152 51.6667 770.379 51.2 769.445 50.88C768.539 50.56 767.245 50.2 765.565 49.8C763.459 49.2933 761.752 48.7867 760.445 48.28C759.165 47.7733 758.059 47 757.125 45.96C756.219 44.8933 755.765 43.4667 755.765 41.68C755.765 40.1867 756.152 38.84 756.925 37.64C757.725 36.44 758.925 35.48 760.525 34.76C762.125 34.04 764.112 33.68 766.485 33.68C768.139 33.68 769.765 33.8933 771.365 34.32C772.965 34.7467 774.339 35.36 775.485 36.16L774.165 39.36C772.992 38.6133 771.739 38.0533 770.405 37.68C769.072 37.28 767.765 37.08 766.485 37.08C764.219 37.08 762.512 37.4933 761.365 38.32C760.245 39.1467 759.685 40.2133 759.685 41.52C759.685 42.48 760.005 43.2667 760.645 43.88C761.285 44.4667 762.072 44.9333 763.005 45.28C763.965 45.6 765.259 45.9467 766.885 46.32C768.992 46.8267 770.685 47.3333 771.965 47.84C773.245 48.3467 774.339 49.12 775.245 50.16C776.179 51.2 776.645 52.6 776.645 54.36C776.645 55.8267 776.245 57.1733 775.445 58.4C774.645 59.6 773.432 60.56 771.805 61.28C770.179 61.9733 768.179 62.32 765.805 62.32ZM799.609 49.56L794.489 54.76V62H790.489V34H794.489V49.64L809.689 34H814.249L802.289 46.6L815.009 62H810.329L799.609 49.56ZM827.239 34H831.239V62H827.239V34Z" fill="#182F53"/>
<path d="M113.85 130.24C112.59 130.24 111.42 129.98 110.34 129.46C109.26 128.92 108.39 128.17 107.73 127.21L109.47 125.17C110.63 126.83 112.09 127.66 113.85 127.66C115.03 127.66 115.92 127.3 116.52 126.58C117.14 125.86 117.45 124.8 117.45 123.4V111.61H109.86V109H120.42V123.25C120.42 125.57 119.86 127.32 118.74 128.5C117.64 129.66 116.01 130.24 113.85 130.24ZM141.231 130.24C138.431 130.24 136.251 129.44 134.691 127.84C133.131 126.24 132.351 123.94 132.351 120.94V109H135.351V120.82C135.351 125.32 137.321 127.57 141.261 127.57C143.181 127.57 144.651 127.02 145.671 125.92C146.691 124.8 147.201 123.1 147.201 120.82V109H150.111V120.94C150.111 123.96 149.331 126.27 147.771 127.87C146.211 129.45 144.031 130.24 141.231 130.24ZM180.321 109V130H177.861L165.261 114.34V130H162.261V109H164.721L177.321 124.66V109H180.321ZM192.607 109H195.607V130H192.607V109ZM217.374 130.24C215.254 130.24 213.344 129.78 211.644 128.86C209.944 127.92 208.604 126.63 207.624 124.99C206.664 123.35 206.184 121.52 206.184 119.5C206.184 117.48 206.664 115.65 207.624 114.01C208.604 112.37 209.944 111.09 211.644 110.17C213.344 109.23 215.254 108.76 217.374 108.76C219.474 108.76 221.374 109.23 223.074 110.17C224.774 111.09 226.104 112.37 227.064 114.01C228.024 115.63 228.504 117.46 228.504 119.5C228.504 121.54 228.024 123.38 227.064 125.02C226.104 126.64 224.774 127.92 223.074 128.86C221.374 129.78 219.474 130.24 217.374 130.24ZM217.374 127.57C218.914 127.57 220.294 127.22 221.514 126.52C222.754 125.82 223.724 124.86 224.424 123.64C225.144 122.4 225.504 121.02 225.504 119.5C225.504 117.98 225.144 116.61 224.424 115.39C223.724 114.15 222.754 113.18 221.514 112.48C220.294 111.78 218.914 111.43 217.374 111.43C215.834 111.43 214.434 111.78 213.174 112.48C211.934 113.18 210.954 114.15 210.234 115.39C209.534 116.61 209.184 117.98 209.184 119.5C209.184 121.02 209.534 122.4 210.234 123.64C210.954 124.86 211.934 125.82 213.174 126.52C214.434 127.22 215.834 127.57 217.374 127.57ZM253.129 130L248.599 123.55C248.039 123.59 247.599 123.61 247.279 123.61H242.089V130H239.089V109H247.279C249.999 109 252.139 109.65 253.699 110.95C255.259 112.25 256.039 114.04 256.039 116.32C256.039 117.94 255.639 119.32 254.839 120.46C254.039 121.6 252.899 122.43 251.419 122.95L256.399 130H253.129ZM247.189 121.06C249.089 121.06 250.539 120.65 251.539 119.83C252.539 119.01 253.039 117.84 253.039 116.32C253.039 114.8 252.539 113.64 251.539 112.84C250.539 112.02 249.089 111.61 247.189 111.61H242.089V121.06H247.189ZM283.943 111.61V118.93H294.473V121.51H283.943V130H280.943V109H295.763V111.61H283.943ZM314.686 130.24C311.886 130.24 309.706 129.44 308.146 127.84C306.586 126.24 305.806 123.94 305.806 120.94V109H308.806V120.82C308.806 125.32 310.776 127.57 314.716 127.57C316.636 127.57 318.106 127.02 319.126 125.92C320.146 124.8 320.656 123.1 320.656 120.82V109H323.566V120.94C323.566 123.96 322.786 126.27 321.226 127.87C319.666 129.45 317.486 130.24 314.686 130.24ZM335.716 109H338.716V127.39H350.086V130H335.716V109ZM359.529 109H362.529V127.39H373.899V130H359.529V109ZM389.256 130.24C387.676 130.24 386.146 130 384.666 129.52C383.206 129.02 382.056 128.38 381.216 127.6L382.326 125.26C383.126 125.98 384.146 126.57 385.386 127.03C386.646 127.47 387.936 127.69 389.256 127.69C390.996 127.69 392.296 127.4 393.156 126.82C394.016 126.22 394.446 125.43 394.446 124.45C394.446 123.73 394.206 123.15 393.726 122.71C393.266 122.25 392.686 121.9 391.986 121.66C391.306 121.42 390.336 121.15 389.076 120.85C387.496 120.47 386.216 120.09 385.236 119.71C384.276 119.33 383.446 118.75 382.746 117.97C382.066 117.17 381.726 116.1 381.726 114.76C381.726 113.64 382.016 112.63 382.596 111.73C383.196 110.83 384.096 110.11 385.296 109.57C386.496 109.03 387.986 108.76 389.766 108.76C391.006 108.76 392.226 108.92 393.426 109.24C394.626 109.56 395.656 110.02 396.516 110.62L395.526 113.02C394.646 112.46 393.706 112.04 392.706 111.76C391.706 111.46 390.726 111.31 389.766 111.31C388.066 111.31 386.786 111.62 385.926 112.24C385.086 112.86 384.666 113.66 384.666 114.64C384.666 115.36 384.906 115.95 385.386 116.41C385.866 116.85 386.456 117.2 387.156 117.46C387.876 117.7 388.846 117.96 390.066 118.24C391.646 118.62 392.916 119 393.876 119.38C394.836 119.76 395.656 120.34 396.336 121.12C397.036 121.9 397.386 122.95 397.386 124.27C397.386 125.37 397.086 126.38 396.486 127.3C395.886 128.2 394.976 128.92 393.756 129.46C392.536 129.98 391.036 130.24 389.256 130.24ZM411.646 111.61H404.446V109H421.816V111.61H414.616V130H411.646V111.61ZM443.409 124.75H432.249L429.939 130H426.849L436.359 109H439.329L448.869 130H445.719L443.409 124.75ZM442.359 122.35L437.829 112.06L433.299 122.35H442.359ZM467.099 130.24C464.999 130.24 463.099 129.78 461.399 128.86C459.719 127.92 458.399 126.64 457.439 125.02C456.479 123.38 455.999 121.54 455.999 119.5C455.999 117.46 456.479 115.63 457.439 114.01C458.399 112.37 459.729 111.09 461.429 110.17C463.129 109.23 465.029 108.76 467.129 108.76C468.769 108.76 470.269 109.04 471.629 109.6C472.989 110.14 474.149 110.95 475.109 112.03L473.159 113.92C471.579 112.26 469.609 111.43 467.249 111.43C465.689 111.43 464.279 111.78 463.019 112.48C461.759 113.18 460.769 114.15 460.049 115.39C459.349 116.61 458.999 117.98 458.999 119.5C458.999 121.02 459.349 122.4 460.049 123.64C460.769 124.86 461.759 125.82 463.019 126.52C464.279 127.22 465.689 127.57 467.249 127.57C469.589 127.57 471.559 126.73 473.159 125.05L475.109 126.94C474.149 128.02 472.979 128.84 471.599 129.4C470.239 129.96 468.739 130.24 467.099 130.24ZM492.228 120.67L488.388 124.57V130H485.388V109H488.388V120.73L499.788 109H503.208L494.238 118.45L503.778 130H500.268L492.228 120.67ZM527.007 109H535.857C538.077 109 540.047 109.44 541.767 110.32C543.487 111.2 544.817 112.44 545.757 114.04C546.717 115.62 547.197 117.44 547.197 119.5C547.197 121.56 546.717 123.39 545.757 124.99C544.817 126.57 543.487 127.8 541.767 128.68C540.047 129.56 538.077 130 535.857 130H527.007V109ZM535.677 127.39C537.377 127.39 538.867 127.06 540.147 126.4C541.447 125.74 542.447 124.82 543.147 123.64C543.847 122.44 544.197 121.06 544.197 119.5C544.197 117.94 543.847 116.57 543.147 115.39C542.447 114.19 541.447 113.26 540.147 112.6C538.867 111.94 537.377 111.61 535.677 111.61H530.007V127.39H535.677ZM573.033 127.39V130H557.793V109H572.613V111.61H560.793V118.06H571.323V120.61H560.793V127.39H573.033ZM601.837 109L592.627 130H589.657L580.417 109H583.657L591.217 126.25L598.837 109H601.837ZM625.755 127.39V130H610.515V109H625.335V111.61H613.515V118.06H624.045V120.61H613.515V127.39H625.755ZM636.613 109H639.613V127.39H650.983V130H636.613V109ZM669.525 130.24C667.405 130.24 665.495 129.78 663.795 128.86C662.095 127.92 660.755 126.63 659.775 124.99C658.815 123.35 658.335 121.52 658.335 119.5C658.335 117.48 658.815 115.65 659.775 114.01C660.755 112.37 662.095 111.09 663.795 110.17C665.495 109.23 667.405 108.76 669.525 108.76C671.625 108.76 673.525 109.23 675.225 110.17C676.925 111.09 678.255 112.37 679.215 114.01C680.175 115.63 680.655 117.46 680.655 119.5C680.655 121.54 680.175 123.38 679.215 125.02C678.255 126.64 676.925 127.92 675.225 128.86C673.525 129.78 671.625 130.24 669.525 130.24ZM669.525 127.57C671.065 127.57 672.445 127.22 673.665 126.52C674.905 125.82 675.875 124.86 676.575 123.64C677.295 122.4 677.655 121.02 677.655 119.5C677.655 117.98 677.295 116.61 676.575 115.39C675.875 114.15 674.905 113.18 673.665 112.48C672.445 111.78 671.065 111.43 669.525 111.43C667.985 111.43 666.585 111.78 665.325 112.48C664.085 113.18 663.105 114.15 662.385 115.39C661.685 116.61 661.335 117.98 661.335 119.5C661.335 121.02 661.685 122.4 662.385 123.64C663.105 124.86 664.085 125.82 665.325 126.52C666.585 127.22 667.985 127.57 669.525 127.57ZM699.43 109C702.15 109 704.29 109.65 705.85 110.95C707.41 112.25 708.19 114.04 708.19 116.32C708.19 118.6 707.41 120.39 705.85 121.69C704.29 122.99 702.15 123.64 699.43 123.64H694.24V130H691.24V109H699.43ZM699.34 121.03C701.24 121.03 702.69 120.63 703.69 119.83C704.69 119.01 705.19 117.84 705.19 116.32C705.19 114.8 704.69 113.64 703.69 112.84C702.69 112.02 701.24 111.61 699.34 111.61H694.24V121.03H699.34ZM733.837 127.39V130H718.597V109H733.417V111.61H721.597V118.06H732.127V120.61H721.597V127.39H733.837ZM758.735 130L754.205 123.55C753.645 123.59 753.205 123.61 752.885 123.61H747.695V130H744.695V109H752.885C755.605 109 757.745 109.65 759.305 110.95C760.865 112.25 761.645 114.04 761.645 116.32C761.645 117.94 761.245 119.32 760.445 120.46C759.645 121.6 758.505 122.43 757.025 122.95L762.005 130H758.735ZM752.795 121.06C754.695 121.06 756.145 120.65 757.145 119.83C758.145 119.01 758.645 117.84 758.645 116.32C758.645 114.8 758.145 113.64 757.145 112.84C756.145 112.02 754.695 111.61 752.795 111.61H747.695V121.06H752.795Z" fill="#182F53"/>
</g>
<path d="M1992.82 265.634C1996.58 265.634 1999.63 262.582 1999.63 258.817C1999.63 255.052 1996.58 252 1992.82 252C1989.05 252 1986 255.052 1986 258.817C1986 262.582 1989.05 265.634 1992.82 265.634Z" fill="#CFF5EA"/>
<defs>
<clipPath id="clip0">
<rect width="2000" height="300" fill="white"/>
</clipPath>
</defs>
</svg>
